<svg version="1.1" id="Layer_1" xmlns="http://www.w3.org/2000/svg" xmlns:xlink="http://www.w3.org/1999/xlink" x="0px" y="0px"
	 viewBox="0 0 255 59.3" style="enable-background:new 0 0 255 59.3;" xml:space="preserve">
<g>
	<path d="M70.5,51.4c0.3-1.4,0.7-2.8,1-4.3c0.6-3.1,1.2-6.2,1.8-9.3c0.1-0.5,0.2-1,0.1-1.4c-0.1-0.6,0.1-1,0.4-1.4
		c0.6-0.9,1.2-1.4,2.4-1c0.4,0.1,0.9,0,1.3,0c1.3-0.1,2.1,0.8,2.8,1.7c1.2,1.6,2.9,2.7,4.5,3.9c2.4,1.8,4.8,3.6,6.5,6.1
		c0.8,1.2,0.8,2.4-0.3,3.4c-1.1,1.1-2.1,2.2-3.6,2.6c-0.3,0.1-0.6,0.4-1.2,0.7c1,0.4,1.8,0.9,2.7,1.1c2.2,0.5,4.5,0.9,6.7,1.3
		c1.5,0.3,2.9,0.7,4.2,1.6c0.7,0.5,0.8,1.3,0.7,1.9c-0.1,0.3-0.9,0.6-1.4,0.7c-1.6,0.3-3-0.5-4.6-0.6c-2.1-0.1-4.1-0.8-6.2-1.2
		c-0.9-0.2-1.8-0.5-2.6-0.8c-1.8-0.8-3.6-1.7-5.3-2.7c-1.2-0.7-2.5-1.4-3.2-2.9c-0.1,0-0.2,0-0.3,0.1c-0.1,0.7-0.2,1.4-0.3,2
		c-0.1,0.6-0.1,1.3-0.1,1.9c0.1,1-0.5,1.5-1.2,1.7c-0.8,0.2-1.7,0.4-2.6,0.3c-1.7-0.2-3.3-0.6-5-1c-0.2,0-0.4-0.2-0.6-0.4
		c-1-1.3-2.1-2.7-3.1-4c-0.2-0.2-0.6-0.4-0.8-0.4c-1.8,0.6-3.6,1.2-5.4,1.8c-0.2,0.1-0.5,0.4-0.5,0.6c-0.3,0.9-0.5,1.8-0.7,2.7
		c-0.1,0.3-0.2,0.6-0.4,0.9c-0.9,1.7-2.7,2.3-4.4,1.4c-0.2-0.1-0.5-0.3-0.7-0.4c-1.4-0.6-1.4-0.6-2-2.1c-1,0.4-2,0.9-3,1.3
		c-2.9,1-5.6,0.5-8.2-0.9c-2.1-1.1-3.2-3.6-2.5-6.7c0.3-1.4,0.6-2.9,1.1-4.2c0.6-1.6,1.5-3.1,2.2-4.6c0.6-1.3,1.3-2.5,2-3.8
		c0.2-0.4,0.7-0.7,1.1-0.8c1.3-0.2,2.7-0.5,3.9,0.5c0.2,0.2,0.5,0.3,0.7,0.4c0.9,0.5,1.2,1.3,0.4,2c-2.5,2.3-3.8,5.4-5,8.4
		c-0.7,1.7-0.8,3.5-0.2,5.3c0.2,0.7,0.6,0.9,1.2,0.6c1.6-0.7,3.1-1.4,4.7-2.1c0.5-0.3,1-0.6,1.6-0.8c1.2-0.5,1.9-1.4,2.2-2.7
		c1.1-4,2.9-7.7,4.9-11.2c0.4-0.6,0.8-1.2,1.2-1.8c0.4-0.6,1-1,1.8-0.9c0.9,0.1,1.7,0.1,2.6,0.3c0.5,0.1,0.9,0.5,1.3,0.8
		c0.5,0.5,0.7,1.1,0.1,1.8c-0.3,0.3-0.4,0.6-0.7,1c0.6,0.3,1.1,0.5,1.6,0.8c1.2,0.7,1.7,1.9,1.9,3.1c0.5,2.9,1.9,5.5,3.1,8.1
		c0.3,0.5,0.8,1,1.1,1.5C70.2,51.5,70.4,51.5,70.5,51.4z M77.2,50.1c0.6-0.4,1-0.8,1.4-0.8c1.3-0.2,2.7-0.3,4-0.6
		c0.8-0.2,1.5-0.7,2.1-1.3c0.8-0.7,0.9-1.2,0.1-1.9c-1.9-1.7-3.9-3.4-5.8-5c-0.1,0-0.2,0.1-0.4,0.1C78,43.7,77.4,46.8,77.2,50.1z
		 M57.2,47.9c1.7,0,3.1,0,4.7,0c-0.7-2-1.4-3.9-2.1-5.8c-0.1,0-0.2,0-0.3,0C58.6,43.9,57.6,45.7,57.2,47.9z"/>
	<path d="M126.8,14c-0.4,0.2-0.8,0.3-1.1,0.5c-1,0.6-2,1.4-3.1,1.8c-1.1,0.4-2.3,0.5-3.5,0.6c-0.6,0.1-1.2,0.1-1.8,0.2
		c-0.3,0.1-0.6,0.4-0.6,0.6c-0.4,1.6-0.9,3.2-1,4.9c-0.2,2.7-0.9,2.7-3.1,2.9c-0.7,0.1-1.3-0.1-2-0.1c-1.3-0.1-1.9-1-1.6-2.2
		c1.2-4.3,2.5-8.7,3.7-13c0.6-2,0.9-3.9,0.6-6.2c-2.9,0.7-5.7,1.3-8.4,1.9c-0.8,6.9-1.6,13.6-2.4,20.4c-1.8,1.2-3.8,0.9-5.9,0.2
		c-0.6-0.2-0.9-0.9-0.7-1.7c0.3-1.3,0.8-2.5,1-3.8c0.4-2.5,0.7-5,1.1-7.4c0.2-1.6,0.4-3.1,0.6-4.7c0-0.4,0-0.8,0-1.4
		c-1,0.3-1.8,0.5-2.6,0.9c-1.9,1.1-3.8,0.8-5.7,0.1c-0.6-0.2-1.3-0.4-1.3-1.3c0-1.2,0.3-1.6,1.6-2c3.2-0.9,6.3-1.8,9.5-2.7
		c3.1-0.8,6.3-1.5,9.5-1.6c1.6,0,3.1,0,4.4,1.1c0.2,0.2,0.6,0.4,0.7,0.7c0.1,0.8,0.7,0.8,1.3,0.9c0.7,0.1,1.3,0.2,2,0.4
		c0.8,0.3,1.3,1,1.2,2.1c-0.2,1.8-0.5,3.5-0.8,5.3c-0.1,0.4-0.1,0.8-0.2,1.4c4.1-1.8,7.4-4.3,9.9-7.8c0.4,0,0.7,0.1,1.2,0.1
		c0.1-0.4,0.3-0.8,0.4-1.2c0.1-0.6,0.1-1.2,0.2-1.8c0.1-0.7,0.4-1.1,1.2-1.3c1.3-0.3,2.4-0.2,3.5,0.4c0.9,0.5,1.4,1.2,1.3,2.2
		c-0.2,1.3-0.3,2.5-0.6,3.8c-0.9,3.7-1.9,7.5-2.9,11.2c-0.1,0.3,0,0.7-0.1,1.1c-0.1,1.6-0.4,3.1-1.9,4c-0.5,0.3-1.2,0.5-1.9,0.6
		c-0.6,0.1-1.2,0.1-1.8,0.2c-0.9,0.1-1.4-0.2-1.3-1.1c0.1-1.5,0.3-3.1,0.6-4.6c0.3-1.4,0.6-2.9,1-4.3C127,14.1,126.9,14,126.8,14z"
		/>
	<path d="M163.2,44.1c-0.2,0.4-0.4,0.5-0.5,0.7c-0.9,2.4-1.8,4.8-2.7,7.3c-0.1,0.2-0.2,0.5-0.2,0.7c-0.2,2-1.4,2.8-3.5,2.5
		c-1.2-0.1-2.2-0.6-3.1-1.3c-0.3-0.2-0.8-0.2-1.2-0.1c-3.7,0.9-7.5,1.1-11.3,1.3c-1.5,0.1-3.1,0.3-4.6,0.1c-1.4-0.1-2.9-0.1-4.2-1
		c-1-0.7-1.2-1.7-0.3-2.6c0.2-0.2,0.4-0.3,0.7-0.3c1.9-0.1,3.9-0.2,5.8-0.3c0.8,0,1.7-0.1,2.6-0.1c0-0.5,0-1,0-1.5
		c0.1-2.1,0.3-4.3,0.4-6.4c0-0.7-0.1-1.4-0.1-1.9c-1.6-0.3-3-0.6-4.5-0.8c-1-0.2-1.4-0.6-1.4-1.4c0-1.2,0.3-1.9,1.3-2.1
		c1.9-0.4,3.8-0.8,5.8-1c2.3-0.3,4.7-0.5,7-0.8c2-0.3,3.3,0.6,4.4,2.1c-0.6,1.1-1.7,1.3-2.7,1.6c-1.4,0.3-2.9,0.5-4.4,0.7
		c-0.4,0.1-0.7,0.2-1,0.3c0.5,0.8,1,1.6,1.5,2.5c0.1,0.2,0.2,0.5,0.2,0.8c0,1.7-0.1,3.4-0.2,5.1c0,0.3,0,0.6,0,1
		c0.1,1,0.4,1.2,1.4,1c0.7-0.1,1.4-0.4,2.1-0.4c0.9,0,1.9,0,2.8,0.2c0.7,0.1,1.1-0.1,1.4-0.8c1.2-2.9,2.4-5.8,3.7-8.7
		c0.4-0.9,0.9-1.8,1.2-2.7c0.2-0.5,0.3-1.2,0.4-1.7c0.2-1.2,1.2-2,2.5-2.1c1.6-0.1,2.9,0.6,4,1.6c0.2,0.2,0.4,0.6,0.4,0.8
		c-0.1,1.4,0.6,2.6,1,3.8c0.6,1.9,1.4,3.8,2.1,5.7c0,0.1,0.1,0.2,0.3,0.4c0.3-0.6,0.5-1.1,0.7-1.6c1.1-2.7,2.1-5.5,3.2-8.3
		c0.4-1,0.8-2,1.2-3c0.2-0.7,0.7-0.9,1.3-0.7c0.6,0.2,1.1,0.4,1.7,0.6c0.4,0.2,0.8,0.3,1.3,0.6c0.8,1.1,0.7,2.4,0.1,3.7
		c-1.5,3.5-2.7,7.1-3.7,10.8c-0.5,1.8-1.3,3.6-2,5.4c-0.5,1.2-1.6,1.5-3.1,1.3c-2.7-0.4-4.2-2.1-5.1-4.6
		C164.9,48.2,164,46.3,163.2,44.1z"/>
	<path d="M206.2,14c1.9-1.2,3.9-2.2,6.2-2.6c2.3-0.4,4.4-0.1,6.4,1.5c0.3-0.9,0.7-1.6,0.9-2.4c0.5-2.3,0.9-4.7,1.3-7.1
		c0.1-0.4,0-0.9-0.1-1.3c-0.1-0.9,0.6-2,1.4-2c1.4-0.1,2.8-0.2,3.9,0.9c0.5,0.5,0.8,0.9,0.8,1.5c0,0.7,0,1.4-0.2,2.1
		c-0.4,1.8-0.8,3.7-1.2,5.5c-0.1,0.3-0.1,0.7-0.2,1.3c1-0.2,1.8-0.3,2.6-0.5c1.6-0.4,3.2-1,4.8-1.4c0.9-0.2,1.4-0.7,1.7-1.5
		c0.7-2.2,1.4-4.4,2.1-6.6c0.1-0.4,0.2-0.8,0.4-1.1c0.1-0.2,0.5-0.4,0.8-0.4c2,0.3,3.6,1.7,3.6,3.7c0,1.3-0.2,2.7-0.7,4
		c-1.5,4.1-3.2,8.2-4.8,12.3c-0.2,0.6-0.3,1.2-0.4,1.9c-0.2,1.3-1.1,2-2.4,1.7c-1.2-0.3-2.3-0.6-3.2-1.5c-0.4-0.4-0.6-0.9-0.4-1.5
		c0.5-1.5,1-3,1.6-4.5c0.2-0.4,0.3-0.9,0.6-1.5c-0.5,0.1-0.9,0.1-1.2,0.2c-1.7,0.6-3.4,1-5.2,0.8c-0.8-0.1-1.2,0.3-1.4,1
		c-0.3,1.2-0.6,2.5-0.8,3.7c-0.1,0.3,0,0.7,0,1.1c0.2,1.5-0.8,2.5-2.4,2.2c-0.9-0.2-1.7-0.4-2.6-0.5c-0.7-0.1-1.1-0.3-1.1-1.1
		c-0.1-1-0.4-1.1-1.3-0.5c-3.7,2.5-7.6,3.7-12,1.9c-2.8-1.1-4.1-3.2-4.8-5.9c-0.3-1,0-2.2,0.4-3.3c0.5-1.5,1.1-3,1.9-4.4
		c1.3-2.3,2.7-4.5,4.1-6.7c0.4-0.7,1-0.8,1.7-0.7c1.2,0,2.3,0.1,3.1,1c0.9,1,0.9,1.8,0,2.9c-1,1.2-1.8,2.6-2.7,3.9
		c-0.5,0.8-0.9,1.6-1.2,2.4c-0.2,0.3-0.2,0.7-0.3,1.1C206,13.8,206.1,13.9,206.2,14z M205.1,17.4c0.2,0.6,0.2,1.1,0.4,1.5
		c0.7,1.4,1.1,1.4,2.3,1.2c2.5-0.4,4.1-2,5.6-3.8c0.2-0.2,0.3-0.5,0.5-1c-0.6,0.1-1,0.1-1.3,0.3c-0.8,0.4-1.6,1-2.3,1.4
		c-0.8,0.5-1.6,0.9-2.7,0.7C207,17.6,206.2,17.6,205.1,17.4z"/>
	<path d="M143.4,17.3c-0.2,2-0.4,3.7-0.6,5.4c0,0.4,0,0.9-0.1,1.3c-0.1,0.7-0.7,1.4-1.4,1.6c-1.1,0.2-2.1-0.1-3.2-0.4
		c-1.1-0.3-1.6-1.2-1.5-2.3c0.1-1.6,0.3-3.3,0.6-4.9c0.7-3.8,1.5-7.6,2.2-11.5c0.2-1,0.5-2.1,0.6-3.1c0.1-1.5,1-1.8,2.6-1.8
		c1.6,0,3.1,0.7,4.7,1c2,0.4,3.8,1.4,5.7,2.2c0.9,0.4,1.7,1,2.4,1.7c1.4,1.4,1.2,3.5-0.4,5c-1.1,1-2.4,1.9-3.6,2.9
		c-0.4,0.3-0.9,0.6-1.6,1c0.7,0.3,1.1,0.5,1.6,0.7c1.4,0.4,2.8,0.8,4.2,1.2c0.7,0.2,0.9,0,1.1-0.7c0.2-1.1,0.4-2.2,0.8-3.2
		c0.6-1.8,1.7-3.4,3-4.8c0.9-0.9,1.6-2,2.5-3c0.8-0.8,1.6-1.6,2.5-2.2c1.1-0.8,3.9,0,4.6,1.1c0.1,0.1,0.2,0.3,0.2,0.4
		c-0.1,1.1,0.5,1.4,1.4,1.6c2,0.6,3.4,2,4.4,3.8c0.7,1.4,0.4,2.9-0.1,4.3c-0.9,2.2-2.5,4-4.1,5.8c-1.3,1.3-2.8,2.2-4.4,3
		c-1.7,0.8-3.5,0.9-5.4,0.5c-1.3-0.3-2.6-0.4-3.9-0.5c-0.9-0.1-1.6-0.4-1.9-1.1c-0.5-1.1-1.5-1.2-2.4-1.5c-2.9-1-5.8-1.9-8.7-2.9
		C144.7,17.8,144.2,17.6,143.4,17.3z M162.2,18.2c0.1,0,0.1,0,0.2,0.1c0,0.2,0,0.4,0,0.6c0,0.9,0.5,1.2,1.3,1
		c0.3-0.1,0.5-0.2,0.7-0.4c2.4-1.4,4.3-3.2,5.6-5.7c1.2-2.3,1-3.3-1-4.8c-0.6-0.5-1-0.5-1.5,0.1c-1.4,1.7-3.1,3.1-4,5.1
		C163.1,15.5,162.7,16.9,162.2,18.2z M144.4,12.2c2.2-0.3,3.4-1.8,4.7-2.9c0.4-0.3,0.7-1,0.3-1.4c-1-0.9-2.1-1.6-3.6-1.7
		C145.3,8.2,144.9,10.2,144.4,12.2z"/>
	<path d="M201.2,42.5c0.8-1,1.5-1.9,2.2-2.8c1.4-1.9,3.2-3.2,5.1-4.4c0.7-0.4,1.8-0.2,2.7-0.1c0.7,0,1.6,0.5,1.3-0.9
		c3.2,0.4,5.8,1.8,7.6,4.2c0.6,0.9,1,1.9,0.9,3.1c-0.2,2.4-0.9,4.4-2.5,6.1c-1,1-1.7,2.2-2.8,3.1c-2.6,2.1-5.5,3.4-9,2.7
		c-0.9-0.2-1.8-0.4-2.7-0.6c-2.1-0.5-3.4-1.7-4.1-3.8c-0.1-0.3-0.2-0.6-0.3-0.9c-2.6,2.6-5.7,4.4-8.9,5.9c-1.7,0.8-3.5,1.5-5.3,2.1
		c-0.6,0.2-1.4,0.2-2.1,0.1c-1.1-0.2-2.1-0.5-3.2-0.7c-0.3-0.1-0.5-0.3-0.7-0.5c0.4-1,1.2-1.9,0.5-3.2c-0.2-0.4-0.1-1.2,0.1-1.6
		c0.7-1.4,1-3,1.3-4.5c0.5-2.5,1.2-5,1.8-7.6c0.2-0.8,0.3-1.7,0.4-2.6c0.1-0.6,0.3-0.9,0.9-0.9c0.9,0,1.5-0.4,1.9-1.3
		c0.3-0.8,1.3-1,2.4-0.9c1.3,0.1,2.4,0.8,3.4,1.7c1.1,1,2.2,2,3.3,2.9c1.6,1.4,3.2,2.8,4.8,4.3C200.6,41.7,200.9,42.1,201.2,42.5z
		 M187,51.1c1.5-0.9,2.8-1.6,4.1-2.4c1.3-0.8,2.5-1.8,3.4-3.1c1.1-1.5,1-2.3-0.3-3.7c-0.9-0.9-1.9-1.8-2.8-2.6
		c-0.6-0.5-1.4-1-2.2-1.6C188,42.2,186.7,46.3,187,51.1z M213.5,38.2c-3,1.5-5.2,3.9-7,6.7c-1.2,1.8-1,3.6,0.4,5.1
		c0.6-0.2,1.2-0.4,1.8-0.7c2.5-1,4-3.2,5.6-5.3C215.8,42,215.5,39.9,213.5,38.2z"/>
	<path d="M49.5,16c1.3-0.3,2.4-0.6,3.6-0.9c1.6-0.4,3.2-1,4.8-1.3c0.8-0.2,1.7-0.1,2.6-0.1c0.4,0,0.8,0.3,1.2,0.5
		c0.4,0.2,0.9,0.4,1.5,0.7c-0.1-0.9-0.1-1.5-0.2-2.1c-0.2-0.8,0.2-1.4,0.7-1.9c2.1-2.2,4-4.6,6.5-6.4c0.7-0.5,1.2-1.2,1.8-1.7
		c0.3-0.3,0.8-0.6,1.2-0.6c1.4-0.2,2.9-0.1,4.2,0.7c0.5,0.3,1,0.9,1,1.4c0,0.5-0.5,1.2-0.9,1.5c-2.2,1.3-3.8,3.1-5.6,4.8
		c-0.7,0.7-1.3,1.4-2,2.2c-0.6,0.8-0.6,1.2-0.1,2c0.7,1,1.8,1.3,2.9,1.5c1.2,0.2,2.5,0.1,3.6,0.5c1,0.3,2.2,0.3,3,1.3
		c0.7,0.7,0.9,1.5,0.2,2.2c-1,1.1-2.2,2-3.2,3c-2.1,2-4.9,2.4-7.4,3.4c-1.3,0.5-2.9,0.1-4.3-0.5c-0.7-0.3-1.6-0.4-1.6-1.6
		c-0.9,0.5-1.7,1-2.4,1.5c-4,2.6-8.6,2.9-12.9,0.6c-2.6-1.4-3.9-4-4.6-6.8c-0.6-2.6-0.1-5,1-7.4c1.3-2.8,3-5.3,5-7.7
		c0.3-0.3,0.8-0.5,1.2-0.7c1-0.3,2.1-0.5,3.1,0.2c0.2,0.2,0.6,0.2,0.9,0.3c0.8,0.3,1.1,0.9,1.4,1.7C56,6.7,55.5,7.1,55,7.4
		c-1.8,1.4-3,3.3-4.1,5.2c-0.5,0.8-0.9,1.7-1.4,2.5C49.5,15.3,49.5,15.6,49.5,16z M71.9,19.7c-1.8-0.6-3.3-1.1-4.8-1.7
		c-1.5-0.6-2.7-1.7-3.7-3.1c-0.3,1.4-1.3,1.9-2.3,2.3c-2.4,0.8-4.7,1.6-7.1,2.4c-1.3,0.4-2.7,0.7-4.2,1.1c0.6,1.4,1.1,2.7,2.6,3.2
		c1.1,0.4,2.2,0.1,3.2-0.5c2.1-1.1,4.1-2.3,6.1-3.5c0.8-0.5,1.4-0.4,1.9,0.4c0.4,0.6,0.7,1.3,1,1.9C67.2,22.1,69.9,21.9,71.9,19.7z"
		/>
	<path d="M19.4,57.4c-1.4-2.5-2.8-4.9-4.2-7.4c-0.4-0.6-0.8-0.9-1.5-0.6c-1,0.4-2.1,0.8-3.1,1.2c-0.9,0.3-1.9,0.6-2.8,1
		c-0.3,0.1-0.7,0.4-0.8,0.7c-0.5,1.6-1,3.1-0.7,4.8c0.1,0.8-1,1.9-2,1.9c-0.7,0-1.3-0.2-2-0.3c-0.3-0.1-0.5-0.2-0.8-0.3
		c-0.4-0.2-1.1-0.2-1.2-0.5C0,57.3-0.1,56.6,0.1,56c0.5-1.9,1-3.8,1.6-5.6c1.7-4.6,3.5-9.2,5.3-13.7c0.3-0.7,0.5-1.4,0.7-2.2
		c0.2-0.6,0.5-0.8,1.1-0.9c1.4-0.1,2.8-0.4,4.2,0.4c0.9,0.6,1.9,1.1,2.7,1.7c1,0.8,1.5,2,1.8,3.1c0.8,2.5,1.5,5.1,2.4,7.6
		c1,2.7,2.2,5.2,3.9,7.5c0.4,0.6,0.9,1.1,1.2,1.7c0.5,1.2,0.1,1.7-1.1,2.1c-1,0.3-2,0.2-2.9,0C20.4,57.6,19.9,57.5,19.4,57.4z
		 M13.4,45.5c-0.5-1.7-1-3.3-1.4-4.9c-0.1,0-0.3,0-0.4,0c-0.7,1.7-1.4,3.4-2.2,5.1c0.1,0.1,0.2,0.2,0.2,0.3
		C10.8,45.8,12,45.7,13.4,45.5z"/>
	<path d="M114,51.7c1.1-0.2,1.7-1.1,2.3-1.8c0.6-0.8,1.2-1,2-1c1.5,0,3,0.1,4.4,1c0.3,0.2,0.6,0.3,1.1,0.6c0.5-0.9,1-1.7,1.4-2.6
		c0.8-2,1.6-4.1,2.2-6.2c0.5-1.5,0.8-3.2,1.1-4.7c0.1-0.6,0.4-0.8,1-0.9c1.2-0.2,2.4,0.2,3.5,0.6c0.4,0.1,0.7,0.6,0.8,1
		c0.4,1,0.3,1.9,0,2.9c-1,3.3-1.9,6.6-3,9.8c-0.4,1.3-1.1,2.6-1.8,3.8c-1.2,1.9-2.8,2.1-5.2,1.6c-0.9-0.2-1.7-0.5-2.5-0.8
		c-0.7-0.3-1.2-0.1-1.7,0.3c-1,0.8-1.9,1.6-2.9,2.2c-2.7,1.5-6.1,0.7-7.6-2c-0.8-1.4-0.9-3.2-1.2-4.8c-0.2-1.6-0.3-3.3-0.3-5
		c0-1.7,0.1-3.3,0.1-5c0-0.7-0.1-1.4-0.1-2c0-0.6,0.1-1.2,0.3-1.7c0.1-0.3,0.6-0.6,0.9-0.6c1.4-0.1,2.7-0.1,4,0.5
		c1.3,0.6,1.6,1.2,1.4,2.6c-0.5,3.8-0.9,7.6-0.5,11.4C113.8,51.1,113.9,51.4,114,51.7z"/>
	<path d="M225.6,34.4c1.1-0.5,2.2-0.2,3.2-0.3c1-0.1,1.7,0.4,2.3,1c0.5,0.5,0.8,1.2,0.7,2c-0.4,2.1-0.8,4.1-0.7,6.3
		c0.1,1.7-0.1,3.3-0.1,5c0,0.1,0.1,0.1,0.2,0.3c0.2-0.2,0.4-0.3,0.6-0.5c0.8-0.9,1.5-1.8,2.2-2.7c0.5-0.6,1.1-0.8,1.8-0.6
		c1,0.2,2,0.4,3,0.7c0.3,0.1,0.6,0.4,0.8,0.6c0.4,0.3,0.7,0.3,0.9-0.1c1.5-2.6,3.3-5,4-8.1c0.2-1.1,0.8-2.1,1.3-3
		c0.2-0.5,1.6-0.7,2.1-0.4c0.7,0.4,1.5,0.8,2.2,1.2c0.3,0.2,0.6,0.8,0.6,1.2c-0.2,1.4-0.3,2.9-0.8,4.2c-1.3,3-2.9,5.8-4.4,8.7
		c-0.7,1.2-1.5,2.3-2.9,2.8c-0.5,0.2-1.1,0.3-1.6,0.3c-1.2-0.2-2.4-0.4-3.6-0.7c-0.6-0.1-1-0.1-1.5,0.4c-0.6,0.8-1.3,1.5-2,2.2
		c-1.2,1.1-2.6,1.2-4.1,0.9c-1-0.2-2-0.5-2.9-1c-0.6-0.4-1.1-1.1-1.2-1.8c-0.7-2.9-0.9-5.8-0.7-8.8c0.2-1.9,0.4-3.8,0.6-5.7
		c0-0.5-0.1-1-0.1-1.5C225.4,36,225.5,35.2,225.6,34.4z"/>
	<path d="M26.8,25.4c0-0.8-0.1-1.4,0-2c0.1-0.3,0.4-0.7,0.7-0.9c1.4-0.9,2.3-2.2,3.2-3.5c0.2-0.3,0.4-0.8,0.6-1.2
		c-1.2-0.2-2.4-0.3-3.6-0.5c-1-0.2-2.1-0.5-3.1-0.9c-1.3-0.5-1.8-1.7-2.3-2.9c-0.3-0.6-0.4-1.3-0.5-1.9c-0.4-2.2-0.1-4.3,1-6.2
		c0.1-0.2,0.2-0.3,0.3-0.5c0.5-1.3,1.4-1.7,2.7-1.4c0.6,0.2,1.4,0.2,1.9,0.5c1.8,1,2,1.9,1.1,3.3c-1,1.6-1.5,3.4-0.7,5.4
		c0.4,0.9,1,1.3,1.8,0.9c2.9-1.2,5.5-3,6.8-6c0.4-1,0.5-2.2,0.8-3.3c0.3-1.1,0.8-1.5,2-1.4c1,0.1,2,0.2,2.9,0.4
		c1.6,0.5,2.2,1.5,1.7,3c-0.5,1.6-1.1,3.2-1.9,4.7c-1.2,2.2-2.5,4.3-3.8,6.4c-1.3,2.1-2.5,4.1-3.9,6.2c-0.5,0.8-1.1,1.8-1.8,2.3
		c-0.6,0.5-1.6,0.7-2.3,0.6C29.1,26.3,27.9,25.7,26.8,25.4z"/>
	<path d="M9.2,13.5c1.4-0.2,2.9-0.5,4.3-0.7c0.7-0.1,1.4-0.2,2.1-0.4c1.7-0.5,2.9,0.2,4.1,1.3c0,0.8-0.6,1.2-1.2,1.5
		c-2,1-4.1,1.5-6.3,1.9c-1.1,0.2-2.1,0.8-3.1,1.2c-0.2,0.1-0.4,0.3-0.6,0.4c-1.3,0.7-1.3,0.7-0.9,2.1C7.9,22,8.7,23,9.9,23.5
		c0.3,0.1,0.7,0.2,1,0.1c3-0.5,5.9-1.3,8.5-3c1.5-1,2.7-0.9,3.6,1c0.1,0.3,0.1,0.9-0.1,1c-1,0.9-1.9,1.9-3,2.5
		c-3.3,1.8-6.8,2.6-10.6,2C8.7,27,7.9,27,7.2,26.8c-2.5-0.7-4.3-2.3-5.3-4.8c-0.8-2.2-1.2-4.3-0.3-6.4c0.6-1.4,0.8-2.9,1.9-4.1
		c0.8-0.9,1-2.2,1.6-3.3c1-1.9,2.4-3.5,4.2-4.6c1.6-0.9,3.4-0.8,4.9,0.3c0.9,0.6,0.9,1.9-0.1,2.8c-1.5,1.2-2.9,2.7-3.9,4.3
		c-0.5,0.7-0.9,1.5-1.3,2.3C9,13.3,9.1,13.4,9.2,13.5z"/>
	<path d="M184.1,19.2c0.6-0.4,1.1-0.7,1.5-1.1c2.6-2.9,4.4-6.2,5.4-10c0.2-0.8,0-1.7,0-2.5c0-0.4-0.2-0.8-0.2-1.2
		C190.7,3.3,191,3,192,3c2.3-0.1,4.2,0.9,4.6,2.7c0.2,1.2,0.2,2.5,0.1,3.7c-0.2,2.3-1.3,4.3-2.5,6.3c-1.2,1.9-2.4,3.9-3.9,5.5
		c-3.1,3.4-6.1,3.5-10.3,1.6c-1-0.4-1.5-1.3-1.8-2.4c-0.8-2.7-0.7-5.3-0.3-8c0.3-2,0.5-4,0.7-5.9c0.1-0.7,0.4-1.1,1-1.2
		c1.5-0.2,2.9-0.3,4.2,0.8c0.8,0.7,1.1,1.4,0.9,2.4c-0.3,1.9-0.6,3.8-0.8,5.8C183.7,15.8,183.3,17.4,184.1,19.2z"/>
</g>
</svg>
