<svg version="1.1" id="Layer_1" xmlns="http://www.w3.org/2000/svg" xmlns:xlink="http://www.w3.org/1999/xlink" x="0px" y="0px"
	 viewBox="0 0 255 59.4" style="enable-background:new 0 0 255 59.4;" xml:space="preserve">
<g>
	<path d="M46.5,5.5C47,4.9,47.3,4.3,47.7,4c1-0.8,2.2-0.4,3,0.2c1.7,1.2,3.4,1,5.1,0.6c1.5-0.3,3-0.8,4.5-1.1c1.5-0.3,3-0.6,4.4-0.7
		c1.4-0.1,2.7,0.5,3.9,1.2c0.3,0.2,0.7,0.4,0.9,0.6C70,4,70.3,3.4,70.6,2.8c0.4-0.8,1.1-1,1.9-1C73.7,1.8,75,2,76.3,2
		c2.1,0,4,0.8,5.8,1.5c1.5,0.6,3,1.3,4.2,2.4c1.4,1.3,1.1,2.4,0.5,4c-0.6,1.5-2,2.4-3,3.6c-0.1,0.1-0.3,0.2-0.5,0.4
		c2.4,0.6,4.7,0.8,6.7,2.6c0.1-0.9,0.1-1.5,0.2-2.2c0.2-2.5,0.4-4.9,0.5-7.4c0-0.4,0.1-0.7-0.1-1.1c-0.7-2,0.6-3.3,1.7-4.7
		c0.2-0.2,0.6-0.3,1-0.3c3.7-0.3,7.2,0.2,10.5,1.8c1.7,0.8,3.3,1.8,4.6,3.3c1.2,1.4,1,3.7-0.3,5.2c-1.5,1.6-3.3,2.7-5.3,3.6
		c-0.4,0.2-0.7,0.4-1.2,0.7c1.3,0.6,2.4,0.6,3.4,0.6c1.8,0.1,3.7,0.1,5.5,0.1c0.6,0,1.1,0.2,1.7,0.4c0.4,0.1,0.8,0.2,1.3,0.3
		c0.1-1.1,0.2-2,0.3-2.9c0.3-3.3,1.6-6.3,3.4-9.1c0.4-0.6,1-1,1.5-1.5c0.1-0.1,0.3-0.2,0.4-0.2c1.2,0.1,2.4-0.2,3.3,0.9
		c0.8,1,1.8,1.3,3,1.3c1.4,0,2.3,0.7,3.2,1.8c1.9,2.3,1.9,5,1.6,7.7c-0.5,3.6-2.4,6.3-5.6,8.1c-1.8,1-3.7,1.3-5.7,0.7
		c-0.3-0.1-0.5-0.1-0.9-0.2c-0.9,1.7-2.5,1.8-4.2,1.9c-0.5,0-0.8-0.2-0.9-0.7c-0.3-1-0.8-1.9-1.3-2.8c-0.6-1.3-1.6-1.8-3.1-1.7
		c-2.4,0.2-4.8,0.1-7.1-0.5c-1.6-0.4-3.2-1.2-4.9-1.8c-0.5,1-0.3,2.1-0.2,3.2c0.2,2.9,0.3,2.9-2.8,3.5c-0.2,0-0.3,0.1-0.5,0
		c-1.1-0.5-2.3-1-3.5-1.6c-1.2,1.2-2.7,2-4.5,2.6c-1.5,0.4-2.9,1-4.5,1.1c-2,0.1-3.9-0.4-5.8-1.1c-0.1,0-0.2-0.1-0.3-0.2
		c-0.9-1-2.1-1.4-3.3-1.8c-0.5-0.2-0.8-0.9-1-1.5c-0.2-0.5-0.1-1,0-1.5c0.5-4.1,0.2-8.1,0.1-12.2c0-0.6-0.2-1.2-0.3-2.1
		c-1.2,0.9-2.3,0.8-3.4,0.8c-2.1,0.1-4,0.9-6.1,1.6c0.6,1,1.1,1.8,1.6,2.6c1.3,2,2.1,4.2,2.7,6.5c0.4,1.6-0.7,4-2.1,4.9
		c-2.5,1.6-5.2,2.4-8.1,2.6c-1.4,0.1-2.8-0.3-4.1-1c-1.3-0.7-2.5-1.5-3.2-2.7c-0.8-1.3-1.2-2.7-1.2-4.3c0-1,0.7-1.5,1.5-1.8
		c0.6-0.2,1.1,0,1.4,0.5c1,1.3,2.2,2.4,2.8,3.9c0.4,1,1.2,1.3,2.1,1c1.2-0.4,2.4-0.9,3.5-1.4c1-0.4,1.4-1.3,1.3-2.3
		c0-1-0.2-2-0.4-2.9c-0.4-1.2-0.9-2.4-1.4-3.5c-0.4-0.9-1.2-1.3-2.1-1.3c-2.3,0.1-4.3-0.7-6.2-1.9C47.8,7.1,47.2,6.3,46.5,5.5z
		 M122.7,7.7c-2,1.8-4.3,9-2.6,11.5c0.6-0.4,1.5-0.7,1.9-1.3c0.9-1.2,1.9-2.5,2-4.1c0.1-0.5,0-1,0.1-1.5
		C124.5,10.5,123.9,9,122.7,7.7z M76.6,17.9c-0.1,1.2-0.1,2.3-0.2,3.5c0,0.6,0.3,1.1,0.9,1.2c0.6,0.1,1.3,0.1,1.9,0
		c1.6-0.3,3.3-0.6,4.5-1.9c0.7-0.7,0.8-1.5,0.3-2.3C81.6,18.2,79.1,18,76.6,17.9z M96.9,12c1.6-0.1,4.2-1.4,5-2.6
		c1.2-1.6,1.1-2.5-0.6-3.6c-0.8-0.5-1.7-0.8-2.6-1.2c-0.7-0.2-1.2,0.2-1.3,1c-0.1,0.9-0.2,1.8-0.3,2.7C97,9.6,97,10.8,96.9,12z
		 M76.5,6c0,1.1,0.1,2.2,0.1,3.2c0,1,0,2,0,3.3c1.9-1.5,3.6-2.8,4.2-5.1C79.5,6.2,77.9,6.2,76.5,6z"/>
	<path d="M167,22.2c0.6-0.2,1.1-0.3,1.5-0.6c2.4-1.4,4.8-2.9,7.2-4.3c0.6-0.4,0.8-0.8,1-1.5c0.8-3.2,1.6-6.5,2.4-9.7
		c0.2-0.7,0.2-1.3,0.4-2c0.4-1.8,1.2-1.8,2.5-1.8c0.5,0,1.1,0.1,1.6,0.3c1.1,0.3,2.1,0.7,3.1,1.1c1.6,0.7,2,2.2,2.3,3.7
		c0.7,3.1,1.8,6,3.4,8.7c1,1.7,2.3,3.3,3.4,5c0.2,0.3,0.5,0.6,0.8,0.9c0.5-1,0.5-1.7-0.2-2.4c-0.8-0.9-0.7-1.7-0.2-2.7
		c0.4-0.9,0.4-2.1,0.3-3.2c-0.1-1.5-0.2-3-0.5-4.5c-0.2-1.1-0.6-2.3-1-3.4c-0.4-1.2-0.1-1.8,1-2.4c0.5-0.3,1.1-0.6,1.5-0.9
		c1.3-1.2,3-1.5,4.6-1.5c2.4,0,4.6,1,6.4,2.4c2.3,1.8,4.4,3.8,6.7,5.8c0,0,0.1,0,0.2-0.2c0.7-1.9,2.2-3.1,3.7-4.3
		c1.8-1.5,3.6-2.9,5.4-4.2c1.3-1,2.7-0.4,4.1-0.2c1.1,0.1,1.6,0.8,2.1,1.7c0.3,0.6,0.2,1.1-0.3,1.5c-1.4,1-2.8,1.9-4.2,2.9
		c-1.4,1-2.7,2.1-4,3.2c-0.6,0.5-0.7,1.6-0.2,2.3c0.5,0.6,1.1,1,1.7,1.5c1.3,1,2.8,1.5,4.3,1.9c0.7,0.2,1.4,0.3,2.2,0.4
		c1.2,0.2,2.3,0.8,2.5,1.9c0.3,1.2-0.5,2.1-1.4,2.8c-1,0.8-2.1,1.5-3.2,2.3c-3.1,2.1-6.6,2.7-10.2,2.8c-1,0-2.1-0.4-3.1-0.6
		c-0.5-0.1-0.6-0.4-0.8-0.8c-0.4-1.1,0-2.1,1.1-2.6c1-0.6,2.1-0.7,3.3-0.5c1.8,0.3,3.4-0.3,4.9-1.4c0.4-0.3,0.9-0.7,1.4-1.1
		c-0.3-0.2-0.6-0.4-0.8-0.5c-2.9-0.9-5.5-2.4-7.7-4.5c-3.9,7.6-9.9,10.9-18.3,9.4c0.2,0.6,0.5,1.2,0.5,1.9c0,1-1.1,1.6-2.6,1.6
		c-0.2,0-0.3-0.1-0.5-0.1c-1.9,0.3-2.8-1-3.8-2.2c-1.4-1.7-2.8-3.5-4.2-5.3c-1.6,0.5-3.2,1-4.9,1.5c-0.8,0.3-0.6,1-0.6,1.6
		c0.1,1.3-0.3,2.4-1.4,2.7c-1,0.2-2.2,0.1-3.2-0.1c-0.6-0.1-1.4-0.3-1.7-1.1c0-0.1-0.7-0.1-0.9,0.1c-1.5,0.9-2.9,1.8-4.5,2.7
		c-0.6,0.3-1.4,0.6-2,0.6c-1.9,0-3.8,0.2-5.7-0.6c-1.8-0.7-2.2-1.3-2.2-3.3c0.1-5,1-9.8,1.8-14.7c0.3-1.8,0.7-3.7,1.1-5.5
		c0.1-0.3,0.3-0.6,0.5-0.7c1.4-0.9,4-0.7,5.3,0.7c0.6,0.6,0.7,1.4,0.4,2.3c-0.9,3.3-1.8,6.6-2.1,10c-0.2,1.9-0.4,3.7-0.5,5.6
		C166.9,21.3,167,21.7,167,22.2z M203.1,19.1c0.2,0,0.3,0.1,0.4,0c2.5-1.1,4.5-2.6,5.9-4.9c0.8-1.2,0.6-2.3-0.1-3.3
		c-1.7-2.6-4.1-4.4-6.8-5.8c-0.6,0.3-0.7,0.6-0.6,1.2c0.2,1,0.5,2.1,0.5,3.1c0.2,2.3,0.3,4.6,0.4,6.9C203,17.2,203,18.1,203.1,19.1z
		 M185.6,15.1c-0.5-1.1-1-2.2-1.5-3.2c-0.1,0-0.2,0-0.3,0c-0.3,1.2-0.9,2.3-0.7,3.7C184,15.4,184.7,15.3,185.6,15.1z"/>
	<path d="M45.8,54.7c-0.4-1-0.8-1.9-1.1-2.9c-1.1-3.6-2.1-7.3-3.2-10.9c-0.2-0.8-0.8-1.6-1-2.4c-0.5-1.5-0.1-2,1.5-2.1
		c1-0.1,2-0.1,3,0.3c1,0.5,1.8,1.1,2.1,2.4c0.8,3.5,1.8,7,2.8,10.5c0.1,0.3,0.3,0.6,0.5,1.1c0.3-0.5,0.6-0.8,0.6-1.1
		c0.7-2.7,1.4-5.5,2.2-8.2c0.5-1.8,1.2-3.5,1.8-5.3c0.3-0.8,0.8-1.3,1.7-1c0.5,0.1,1,0.1,1.5,0.2c1.7,0.3,2.4,1.2,2.1,3
		c0,0.1,0,0.2,0,0.5c0.8,0,1.7,0.1,2.4,0c3.5-0.6,6.9-1.4,10.3-1.9c2.2-0.3,4.4-0.5,6.5-0.5c1.4,0,2.9,0.3,3.9,1.5
		c0.8,0.9,0.7,1.4-0.5,1.8c-1,0.3-2.1,0.4-3.1,0.6c-2.1,0.4-4.1,0.8-6.2,1.2c-0.4,0.1-0.8,0.1-1.2,0.2c-0.6,0.2-1.2,0.4-1.9,0.6
		c0.5,0.5,0.8,0.8,1.2,1c0.9,0.6,0.9,1.5,1,2.4c0,1.7,0.1,3.3,0.2,5c0,0.5,0.4,0.7,0.8,0.7c0.8,0.1,1.7,0.2,2.5,0.3
		c2.1,0.2,3.9,1.1,5.3,2.7c0.5,0.6,0.4,1.1-0.3,1.5c-1,0.6-2.2,0.7-3.2,0.2c-2.6-1.2-5.2-0.6-7.9-0.4c-2,0.1-4,0.1-6,0.1
		c-1.2,0-2.4,0-3.6-0.2c-0.9-0.2-1.8-0.7-2.6-1.3c-0.7-0.5-0.6-2.1,0.1-2.7c0.2-0.2,0.7-0.2,1-0.2c1.6,0.1,3.2,0.3,4.9,0.4
		c0.8,0,1.6-0.1,2.6-0.2c0.1-2.9,0.2-5.7,0.3-8.5c-1.5-0.1-2.7,0.8-4,0.2c-1.2-0.5-2.4-0.9-3.7-1.4c-0.3,1.3-0.7,2.6-0.9,3.9
		c-0.5,3.3-1.4,6.5-2.5,9.6c-0.8,2.5-3,3.5-5.5,2.7c-1.5-0.5-2.8-1-4-2.4c-0.1,0.5-0.1,0.8-0.2,1c-0.2,0.3-0.3,0.8-0.6,0.9
		c-0.9,0.4-1.9,1-3,0.4c-0.3-0.2-0.7,0-1.1-0.2c-0.4-0.1-0.8-0.3-1-0.7c-1-1.6-2.3-2.7-3.7-3.9c-0.5-0.4-1-0.5-1.7-0.2
		c-1.4,0.5-2.8,1-4.3,0.9c-1.2,0-1.7,0.6-1.6,1.8c0,0,0,0.1,0,0.1c0.2,2.3-0.6,3.1-2.9,2.6c-0.9-0.2-1.7-0.5-2.5-0.8
		c-0.3-0.1-0.6-0.6-0.6-0.9c0-1.2,0.1-2.3,0.3-3.4c0.2-1.4,0.6-2.8,0.9-4.2c0.5-2.1,1-4.2,1.4-6.3c0.3-1.5,0.3-3.1,0.4-4.6
		c0-0.3,0-0.6,0-0.8c0.2-1.2,0.4-1.4,1.6-1.5c0.9,0,1.7,0.2,2.6,0.2c0.8,0.1,1.7,0,2.5,0.2c1.6,0.3,2.7,1.2,3.1,2.9
		c0.6,2.2,1.1,4.4,2,6.5c0.9,2.1,2,4.2,3.7,5.9c1.2,1.2,2.6,2.3,3.8,3.4C45.7,54.8,45.8,54.7,45.8,54.7z M33.9,48.8
		c-0.7-1.6-1.3-3-1.9-4.3c-0.1,0-0.3,0-0.4,0c-0.3,1.6-0.6,3.1-1,4.9C31.8,49.1,32.7,49,33.9,48.8z"/>
	<path d="M89.9,51.3c0.5-0.1,0.9-0.1,1.3-0.3c3-1,6-1.6,9.1-2c1.4-0.2,2.8-0.2,4.2,0.4c1,0.4,1.2,0.2,1.4-0.8c0.6-2.6,1-5.3,0.9-8
		c0-0.7-0.4-0.8-1-0.7c-0.7,0-1.4,0.2-2.1,0.1c-0.7-0.1-1.4-0.4-2-0.6c-0.6-0.2-1.2-0.5-2.1-0.8c-0.1-0.4-0.2-1-0.2-1.7
		c0-0.3,0.4-0.7,0.7-0.9c0.8-0.5,1.6-0.5,2.5-0.5c2-0.1,4-0.3,6-0.4c2.7-0.2,5.3-0.3,7.9,0.4c0.9,0.2,1.5,0.8,2,1.5
		c0.4,0.6,0.3,1-0.3,1.3c-0.5,0.2-1,0.4-1.6,0.5c-1,0.1-2,0.2-3,0.3c-1,0.1-1.1,0.2-1.2,1.2c-0.1,1.6-0.1,3.2-0.1,4.8
		c-0.1,1.8-0.2,3.6-0.4,5.4c1.1,0.1,2-0.3,2.9-0.7c1.6-0.6,3.7,0.2,4.5,1.6c0.4,0.7,0.3,1.1-0.2,1.7c-1,1.1-2.4,1.4-3.8,1.7
		c-1.8,0.3-3.7,0.6-5.6,0.6c-2.5,0-5-0.1-7.5-0.3c-1.2-0.1-2.4-0.7-3.6-1c-0.3-0.1-0.7-0.1-1,0c-2.1,0.7-4.2,1.4-6.4,2.1
		c-1,0.3-2.1,0.6-3.1,0.8c-0.6,0.1-1.2-0.1-1.7-0.3c-0.7-0.2-1.3-0.6-2-0.8c-0.9-0.3-1.2-0.9-1.4-1.7c-0.3-1.7,0-3.3,0.4-4.8
		c0.4-2.2,1.2-4.3,1.7-6.5c0.4-1.7,0.6-3.4,0.8-5.1c0.2-1.8,0.7-2.3,2.5-2c0.9,0.1,1.7,0.5,2.5,0.7c1.1,0.4,1.5,1.2,1.4,2.2
		c-0.2,1.2-0.5,2.3-0.8,3.5c-0.6,2.5-1.3,5-1.8,7.5C89.8,50.1,89.9,50.7,89.9,51.3z"/>
	<path d="M26.8,32.9c-0.2-0.7,0-1.2,0.3-1.8c0.9-1.5,1.8-2.9,1.9-4.6c-1.3-0.7-2.5-1.3-3.6-2.1c-1.8-1.2-2.6-3-2.6-5.1
		c0-2.1,0.7-4,1.6-5.9c0.7-1.5,1.4-3.1,2.1-4.7c0.7-1.8,2-3.2,3.1-4.6c0.2-0.2,0.6-0.3,1-0.2C31.8,4,32.9,4.3,34,4.5
		c1.1,0.2,2.2,0.2,3.5,0.4c0.3-0.9,0.7-1.9,1-2.9c0.5-1.4,1-1.8,2.3-1.5c0.8,0.2,1.7,0.4,2.3,1.1c1,1.1,0.8,2.2,0.4,3.4
		c-0.3,0.7-0.6,1.4-0.8,2.1c-0.2,0.6-0.1,1.2,0.4,1.7c1.8,1.8,2.2,3.9,1.8,6.4c-0.5,2.9-1.9,5.4-3.7,7.6c-1.3,1.6-3.1,2.8-5.1,3.4
		c-1,0.3-1.5,0.8-1.9,1.8c-0.5,1.4-1.2,2.8-2,4.2c-0.6,1-2.5,1.6-3.7,1.2C28,33.2,27.5,33.1,26.8,32.9z M30.6,22.9
		c2-4.9,3.9-9.5,5.4-14.3c-1-0.6-1.5-0.4-2.1,0.3c-2,2.3-2.9,5.2-4.3,7.8c-0.3,0.6-0.4,1.3-0.5,1.9C28.9,20.1,29.1,21.6,30.6,22.9z"
		/>
	<path d="M144.6,47.6c-0.7,2.1-1.2,4.2-1.4,6.4c-0.1,1.9-0.6,2.4-2.4,2.3c-0.9,0-1.8-0.2-2.7-0.5c-1.1-0.3-1.4-0.9-1.2-2
		c0.8-3.7,1.6-7.4,3-10.9c0.7-1.7,1.3-3.5,1.9-5.3c0.4-1.1,0.6-1.3,1.7-1.2c0.9,0,1.9,0.2,2.8,0.4c1,0.2,1.4,0.9,1.7,1.8
		c1,3.3,2,6.6,3.1,9.8c0.4,1.2,1.1,2.2,2.2,3.4c0.6-1.4,1.2-2.5,1.5-3.7c0.5-2,0.8-4,1.3-6c0.4-1.7,0.7-3.4,1.1-5.1
		c0.2-0.9,0.2-1.7,0.5-2.6c0.6-1.8,1.1-2.1,2.9-1.5c2.4,0.8,3,2.9,2.6,5.1c-0.7,2.9-1.3,5.9-2,8.8c-0.7,2.9-1,6-2.8,8.6
		c-0.8,1.3-1.8,2-3.5,1.9c-2.3-0.1-4.4-0.8-5.9-2.4c-1.5-1.6-2.7-3.5-3.4-5.7c-0.2-0.6-0.5-1.1-0.8-1.6
		C144.8,47.6,144.7,47.6,144.6,47.6z"/>
	<path d="M14.5,17.2c-2.7,0.5-5.2,1.1-7.8,1.6c-0.4,1.5-0.5,3.2-0.4,4.9c0,0.4,0.2,0.9,0.2,1.3c0.1,1.2-0.6,1.9-1.7,1.9
		c-1.1-0.1-2.2-0.2-3.1-0.5c-0.5-0.2-1-0.9-1.1-1.4c-0.2-0.7-0.1-1.5,0-2.2c0.1-1.1,0.3-2.2,0.4-3.3c0.1-1,0.1-1.9-0.5-2.8
		c-0.5-0.7-0.6-1.5,0.1-2.1c1-0.8,0.9-1.8,1-2.8c0.2-2,0.3-4,0.4-5.9c0.1-1.2,0-2.3-0.6-3.4C1.1,1.8,1.3,0.4,1.7,0.2
		C2.2,0,2.9,0,3.4,0c0.7,0.1,1.4,0.5,2.2,0.6C6.5,0.8,6.8,1.3,7,2.1C7.6,4,8,5.9,7.8,7.9c-0.1,1.7-0.3,3.5-0.5,5.2
		c-0.1,0.8,0.1,1.1,0.9,0.9c2.1-0.5,4.1-1.2,6.2-1.8c0.2-0.1,0.4-0.5,0.4-0.7c0.3-2.8,0.5-5.6,0.7-8.4c0.1-0.6,0.7-1.3,1.3-1.2
		c0.9,0.1,1.8,0.2,2.7,0.5c1.7,0.5,2.4,2.1,2,4.2c-0.8,4-1.2,8.1-1,12.2c0.1,1.5,0.3,3.1,1.4,4.3c0.5,0.6,0.5,1.5,0,2.2
		c-0.4,0.6-0.8,0.9-1.6,0.7c-0.7-0.1-1.4-0.1-2-0.1c-1.2-0.1-2.1-0.7-2.5-1.9c-0.8-2-1.3-4-1.3-6.1C14.6,17.6,14.5,17.4,14.5,17.2z"
		/>
	<path d="M142.6,27.8c-0.8-1.4-0.9-2.7-0.8-4.1c0-1.6,0-3.2,0.1-4.8c0.1-2,0.3-4,0.5-5.9c0.2-2.1,0.4-4.3,0.6-6.4
		c0-0.3,0.1-0.7,0.1-1c-0.8-0.2-1.4-1.2-1.3-2.4c0-0.7,0.6-1.1,1.4-1.3c4.1-0.7,8.1-0.5,12,0.6c1.5,0.4,3,1.2,4,2.6
		c1.3,1.7,0.9,3.6,0,5.3c-1.5,2.8-3.5,5.2-6,7.3c-1.4,1.2-2.9,2.4-4.7,3.3c-0.3,0.1-0.6,0.5-0.6,0.8c0,1.3,0,2.6,0.2,3.9
		c0.2,1.6-0.6,2.7-2.1,2.6C144.9,28.2,143.7,28,142.6,27.8z M148.6,5.7c1.4,3-0.2,5.9,0.1,8.8c2-1.5,3.1-3.7,4.4-5.6
		c0.4-0.6,0.8-1.6,0.2-2.4C152.6,5.5,149.8,5.1,148.6,5.7z"/>
	<path d="M7.6,52.7c0,1.7,0,3.2,0,4.7c0,1.1-0.9,1.9-2,2c-0.9,0-1.8,0-2.5-0.6c-0.1-0.1-0.3-0.1-0.4-0.2c-1.2-0.3-1.5-0.5-1.4-1.6
		c0.4-3.5-0.1-7,0.1-10.5c0.1-2.6,0.1-5.2,0.1-7.8c0-1.9,1.7-3.3,3.5-3.2c3,0.3,6,0.4,9,0.8c2.6,0.3,5.1,1,7.3,2.4
		c0.6,0.4,1.2,0.7,1.8,1.2c1.1,0.9,1.5,2.4,1.1,3.8C23.6,46,22,47.6,20,48.8c-3.4,2-6.9,3.5-10.9,3.6C8.6,52.4,8,52.6,7.6,52.7z
		 M7.3,46.6C7.3,46.6,7.4,46.6,7.3,46.6c0.1,0.3,0.1,0.5,0.1,0.7c0,1.5,0,1.6,1.6,1.2c3.1-0.7,5.6-2.4,8-4.3c0.8-0.6,1.3-1.4,1-2.4
		c-0.3-1-1.2-1.4-2.2-1.7c-0.8-0.2-1.6-0.4-2.5-0.5c-1.3-0.1-2.6-0.2-3.9-0.2c-1.1,0-1.3,0.3-1.5,1.4C7.7,42.7,7.5,44.6,7.3,46.6z"
		/>
	<path d="M127.3,54.4c-2.2,0-4.2-0.8-5.8-2.1c-2-1.5-3.5-3.4-3.4-6.1c0-0.7,0.2-1.5,0.5-2.2c0.9-2.4,1.9-4.7,4-6.5
		c2.7-2.3,5.5-2.1,8.3-0.5c1.8,1,3.7,2.1,4.8,4c1.2,1.9,1.6,3.9,0.9,6.2c-0.9,3.2-2.9,5.2-5.9,6.4C129.7,53.9,128.5,54.1,127.3,54.4
		z M131.2,44.4c-0.2-1.6-0.8-3-2.2-3.9c-0.9-0.6-1.1-0.7-1.8,0.2c-0.8,0.9-1.5,1.8-2.2,2.8c-1.2,1.7-1.4,3.5-0.5,5.4
		c0.5,1.1,0.9,1.3,2,0.9c2.5-0.8,3.8-2.7,4.6-5.1C131.2,44.5,131.2,44.4,131.2,44.4z"/>
</g>
</svg>
