<svg version="1.1" id="Layer_1" xmlns="http://www.w3.org/2000/svg" xmlns:xlink="http://www.w3.org/1999/xlink" x="0px" y="0px"
	 viewBox="0 0 255 28" style="enable-background:new 0 0 255 28;" xml:space="preserve">
<g>
	<path d="M146.9,19.5c1.1-1.2,1.6-2.5,1.9-3.8c0.4-2.2,0.7-4.4,0.9-6.6c0.1-1.5,0-3-0.2-4.5c-0.1-1.1,0.4-1.9,0.9-2.8
		c0.1-0.2,0.4-0.3,0.6-0.3c0.7,0.1,1.6,0.1,2.2,0.5c0.8,0.5,1.5,0.4,2.3,0.3c1-0.1,2.1-0.1,3.1-0.2c3-0.3,6-0.6,9-0.9
		c2.4-0.2,4.8-0.6,7.2-0.6c1.5,0,3,0.5,4,1.9c-0.6,1.3-2,1.3-3.1,1.4c-2,0.3-3.9,0.6-5.8,0.8c-0.5,2.5-1,5-1.3,7.4
		c-0.4,2.6-0.9,5.2-1.7,7.8c-0.2,0.7-0.3,1.5-0.5,2.2c-0.1,0.8-0.6,1.2-1.3,1.5c-1.3,0.6-2.6,0.3-3.9,0.1c-0.8-0.1-1.2-0.6-1-1.4
		c0.3-1.5,0.7-3,1.1-4.5c0.4-1.6,0.9-3.1,1.2-4.7c0.4-2.2,0.8-4.4,1.2-6.6c0-0.3,0-0.5,0-0.9c-2.6-0.2-5.1,0.9-7.7-0.3
		c-0.1,0.5-0.2,0.8-0.2,1.2c-0.1,2.5-0.1,5.1-0.4,7.6c-0.3,2.6-1.1,5-2.6,7.3c-1.2,1.8-2.7,2.4-4.8,2.2c-0.7-0.1-1.4-0.2-2.1-0.3
		c-2.3-0.2-3.8-1.6-4.7-3.6c-0.8-1.6-1.5-3.3-2.3-5c-0.1-0.1-0.2-0.3-0.2-0.4c-0.1,0-0.2,0.1-0.2,0.1c-0.5,2.3-1.5,4.4-1.6,6.8
		c-0.1,1.5-1.3,2.6-2.9,2.5c-0.8,0-1.7-0.2-2.5-0.4c-1.1-0.3-1.2-0.6-1.1-1.7c0-0.2,0.1-0.5,0.1-0.8c-0.4,0.1-0.6,0.1-0.8,0.2
		c-1,0.5-1.9,1-2.9,1.4c-1.8,0.7-3.5,1.2-5.5,0.7c-1.1-0.2-2.2-0.3-3.3-0.5c-1.4-0.3-2.2-1.2-2.8-2.4c-0.8-1.4-1-3-1-4.6
		c0-3.3,0.9-6.3,2.5-9.1c1-1.7,2.3-3.3,3.6-4.7c0.3-0.4,1.2-0.4,1.9-0.4c0.8,0,1.6,0.3,2.4,0.4c0.9,0.2,1.3,1.7,0.7,2.4
		c-0.9,1.1-1.9,2.3-2.8,3.4c-0.4,0.6-0.7,1.3-1,2c0.1,0.1,0.1,0.1,0.2,0.2c0.6-0.2,1.2-0.4,1.9-0.7c1.1-0.4,2.3-0.8,3.4-1.1
		c0.9-0.2,1.8,0.2,2.6,0.6c0.3,0.2,0.7,0.4,1,0.7c-0.3,1-1,1.6-1.9,2.1c-2.1,1-4.1,2.1-6.2,3.1c-0.5,0.2-1,0.4-1.5,0.5
		c-0.9,0.3-1.3,1-1.1,1.9c0,0.1,0,0.2,0.1,0.2c0.9,2.7,1,2.8,3.8,1.8c3-1.1,5.6-2.9,8-4.8c0.4-0.3,0.7-0.8,0.9-1.3
		c0.9-2.9,1.8-5.8,2.7-8.7c0.6-1.8,1.2-2.1,3-1.6c0.5,0.1,1,0.1,1.5,0.2c1.2,0.1,1.8,0.6,2.1,1.7c0.5,1.8,1,3.5,1.5,5.3
		c0.6,2.4,1.1,4.8,2.2,7.1C145.7,17.8,146.3,18.6,146.9,19.5z"/>
	<path d="M19.3,16.2c-0.8,0.4-1,1.2-1.3,1.9c-1.5,3.2-5.4,3.9-8.2,2.6c-0.4-0.2-0.6-0.9-0.7-1.4c-0.1-0.9-0.1-1.7-0.2-2.8
		c-1,1.2-1,2.6-1.4,3.9c-0.5,1.3-1,2.7-1.5,4c-0.1,0.3-0.5,0.5-0.8,0.5C3.8,25,2.5,25,1.2,25c-1,0-1.5-0.9-1.1-1.8
		c0.8-2.3,1.6-4.6,2.5-6.8c0.6-1.7,1.3-3.4,2-5C5.2,9.8,6,8.4,6.7,7c0.2-0.3,0.4-0.6,0.7-0.8c2.1-1.1,4.2-1.1,6.3-0.2
		c1.1,0.5,1.4,1.6,1.5,2.8c0.1,0.6,0,1.2,0,1.8c0.1,0,0.2,0.1,0.3,0.1c0.2-0.3,0.5-0.5,0.6-0.9c1.3-2.3,2.6-4.7,3.8-7.1
		c0.1-0.2,0.2-0.4,0.3-0.5c0.9-1.7,1.9-2.1,3.8-1.6c0.2,0.1,0.5,0.1,0.7,0.2c1.7,0.3,2,0.7,2,2.3c-0.1,1.3-0.2,2.5-0.5,3.8
		c-0.7,3.5-1.2,7-1.2,10.6c0.1,2,0.6,4.1,0.9,6.1c0.1,0.6,0.3,1.2,0.4,1.9c0.1,1.3-0.6,2.2-1.9,2.3c-0.9,0.1-1.8,0.2-2.7,0.2
		c-1.1,0-1.5-0.4-1.6-1.5c-0.2-2.1-0.5-4.3-0.8-6.4C19.4,18.9,19.4,17.6,19.3,16.2z"/>
	<path d="M101,8c0.7-1,1.4-1.9,2.1-2.9c1-1.3,1.9-2.6,2.9-3.8c1-1.2,2.2-1.7,3.8-1.2c0.8,0.2,1.8,0.2,2.4,0.9
		c0.2,0.2,0.4,0.4,0.4,0.7c0.1,1.8,0.2,3.6,0.1,5.4c-0.3,3.5-0.7,7.1-1,10.6c-0.1,1,0.1,2,0.1,3c0.1,1-0.5,1.8-1.5,1.9
		c-0.9,0.1-1.8,0.1-2.7,0.1c-1.2,0-1.4-0.3-1.5-1.5c-0.2-2.8,0.1-5.6,0.4-8.3c0.1-1,0-2,0-3.2c-0.5,0.7-1,1.3-1.3,1.9
		c-1,2-1.9,4-2.9,6c-0.7,1.3-1,1.9-2.8,1.6c-0.7-0.1-1.3-0.1-2-0.1c-1,0-1.5-0.5-1.7-1.4c-0.2-0.7-0.3-1.5-0.5-2.4
		c-0.2,0.4-0.4,0.6-0.5,0.8c-1.1,2.4-2.2,4.8-3.3,7.2c-0.5,1.1-1.2,1.9-2.5,1.8c-0.9-0.1-1.9,0.1-2.8,0c-1.2,0-1.4-0.3-1.2-1.5
		c0.1-0.8,0.4-1.3,0.8-1.9c1-1.6,1.9-3.3,2.7-5.1c1.6-3.3,3-6.7,4.5-10.1c0.4-0.9,0.7-1.8,1-2.7c0.4-1.4,0.6-1.6,2.1-1.6
		c1,0,2,0.1,2.9,0.3c0.8,0.2,1.4,0.6,1.5,1.6c0,1,0.2,2,0.3,3c0,0.3,0.1,0.5,0.2,0.8C100.8,8,100.9,8,101,8z"/>
	<path d="M60.2,20.2c0.2-0.3,0.3-0.7,0.5-1c0.7-2.4,1.1-4.9,1.2-7.4c0.1-2.1,0.3-4.2-0.1-6.3c-0.3-1.3,0.5-2,1.9-2.2
		c1.5-0.2,2.8-0.1,3.8,1.2c0.2,0.3,0.4,0.7,0.4,1c0,2.5,0.1,5.1-0.2,7.6c-0.2,2.2-0.8,4.5-1.3,6.6c-0.3,1.2-0.8,2.4-1.3,3.6
		c-0.8,1.6-2.1,2.4-3.8,2.3c-0.8,0-1.6,0-2.4,0c-1.6,0-2.7-1-3.5-2.2c-0.9-1.4-1.6-2.8-2.4-4.2c-0.2-0.3-0.3-0.5-0.6-1
		c-0.2,0.6-0.5,1.1-0.6,1.6c-0.3,1.6-0.6,3.2-0.8,4.8c-0.2,1.5-0.9,2.2-2.3,2.3c-0.8,0-1.7,0-2.5,0c-1.4-0.1-1.9-0.9-1.6-2.3
		c0.4-1.6,0.8-3.2,1.2-4.7c0.9-3.4,1.8-6.8,2.7-10.2c0.1-0.3,0.1-0.7,0.2-1.1c0.3-1.4,0.6-1.7,2-1.8c1-0.1,2-0.1,2.9-0.1
		c0.7,0.1,1.3,0.4,1.5,1.1c0.6,1.9,1.2,3.9,1.9,5.8c0.6,1.7,1.2,3.3,1.8,4.9c0.3,0.7,0.7,1.2,1.1,1.9C60,20.2,60.1,20.2,60.2,20.2z"
		/>
	<path d="M75.3,20.7c0.7-0.5,1.3-0.9,1.7-1.4c2.2-2.9,4.1-5.9,4.6-9.6c0.2-1.5,0-2.9,0.1-4.4c0-1,0.1-2,0.3-3
		c0.1-0.7,0.6-1.1,1.3-0.9c1,0.2,1.9,0.6,2.8,1c0.3,0.2,0.5,0.7,0.7,1.1c0.7,2.5,0.9,5,0.4,7.6c-0.5,2.6-1.6,5.1-3,7.3
		c-0.7,1.2-1.4,2.4-2.3,3.4c-1.6,1.7-3.4,3-5.9,2.9c-1-0.1-2.1-0.1-3.1-0.3c-1.9-0.3-2.9-1.6-3.3-3.4c-0.4-1.8-0.6-3.6-0.4-5.5
		c0.2-1.7,0.5-3.4,0.7-5.1c0.2-1.5,0.3-3.1,0.5-4.6c0.2-1.4,0.7-1.6,2.1-1.5c1.1,0,2.1,0.3,3,0.9c0.7,0.4,1,0.9,0.8,1.8
		c-0.4,2-0.7,4.1-1,6.1c-0.2,1.3-0.3,2.7-0.4,4C74.5,18.3,74.7,19.4,75.3,20.7z"/>
	<path d="M26.7,17.7c0.3-3.8,1.7-7.4,4.2-10.5c1.3-1.6,3.2-2.2,5.2-1.5c1.2,0.4,2.3,0.9,3.5,1.4c0.2,0.1,0.5,0.3,0.6,0.5
		c1,2,2.3,3.9,2.4,6.2c0.1,1.2,0,2.5-0.3,3.7c-0.2,1.3-0.4,2.7-1.2,3.8c-0.4,0.6-0.5,1.4-0.8,2.1c-1.1,2.7-3.3,4-6.2,3.9
		c-0.9,0-1.8-0.1-2.7-0.2c-1.3-0.2-2.4-0.9-3-2.1C27.2,22.8,26.7,20.4,26.7,17.7z M33.7,22.7c3.1-3.2,4.2-9.6,1.6-12.2
		C32.7,12.2,31.6,19.8,33.7,22.7z"/>
	<path d="M175.1,23.7c0.7-0.8,1.7-0.9,2.9-0.8c3.5,0.5,6.4-0.9,8.8-3.3c0.1-0.1,0.1-0.3,0.2-0.6c-1.4-0.3-2.8-0.5-4.1-0.9
		c-2.4-0.6-4.9-1-7.2-2.2c-1.6-0.9-2.7-2.2-2.3-3.7c0.1-0.4,0.3-0.9,0.6-1.2c2.1-2.5,4.5-4.6,7.2-6.4c1-0.7,1.9-1.4,2.8-2.2
		c0.8-0.7,1.6-1.2,2.6-1.1c1.1,0.2,2.1,0.6,3.1,1.1c0.4,0.2,0.6,0.7,0.8,1.1c0.2,0.7-0.3,1.1-0.8,1.4c-2.1,1.3-4.2,2.6-6.2,4.1
		c-1.3,1-2.7,2-3.6,3.4c-0.5,0.8-0.5,1.1,0.3,1.5c1,0.4,2,0.8,3,1c2.1,0.5,4.3,0.7,6.4,1.3c1.2,0.3,2.5,0.7,3.3,1.7
		c0.5,0.6,0.7,1.3,0.4,2.1c-0.8,2-2.4,3.2-4.1,4.3c-2.3,1.5-4.9,2.3-7.7,2.7c-1.6,0.2-3.1-0.1-4.6-0.5c-0.5-0.1-1-0.2-1.5-0.4
		c-0.5-0.2-0.9-0.3-0.4-1C175.3,24.8,175.1,24.3,175.1,23.7z"/>
</g>
</svg>
