<svg version="1.1" id="Layer_1" xmlns="http://www.w3.org/2000/svg" xmlns:xlink="http://www.w3.org/1999/xlink" x="0px" y="0px"
	 viewBox="0 0 255 58" style="enable-background:new 0 0 255 58;" xml:space="preserve">
<g>
	<path d="M117.1,51.1c0.3-1.4,0.4-2.9,0.8-4.3c0.9-2.9,2-5.7,3.9-8.2c1-1.3,2.2-2.6,3.3-3.8c0.6-0.6,1.3-0.9,2.2-0.9
		c1.3,0,2.3,0.6,3.3,1.1c1.2,0.6,1,1.8,0,2.7c-1,0.8-2.1,1.6-2.9,2.6c-0.9,1-1.5,2.2-2.3,3.5c0.4,0.1,0.7,0.2,0.9,0.1
		c1.9-0.7,3.8-0.8,5.8-0.9c0.9,0,2.2,0.8,2.6,1.6c0.3,0.7-0.2,1-0.6,1.2c-1.9,0.9-3.9,1.6-5.7,2.5c-1.1,0.5-2.2,1.2-3.2,1.8
		c-0.2,0.1-0.5,0.3-0.7,0.3c-1,0.2-1.2,0.6-1,2c0.1,1,0.5,1.3,1.5,1c1.3-0.3,2.5-0.7,3.7-1.3c2.1-1.1,4.1-2.4,6.2-3.6
		c0.1-0.1,0.3-0.2,0.4-0.2c1,0.5,1.1-0.4,1.4-1c1.3-2.8,2.5-5.7,3.8-8.5c0.6-1.3,1.4-2.5,2.1-3.7c0.6,0,1,0,1.4,0
		c3.1-0.1,4.5,1.6,4.7,4.3c0,0.2,0,0.4,0.1,0.6c0.1,0.4,0.2,0.7,0.5,1.4c0.5-0.7,0.8-1.1,1.1-1.7c1.5-2.6,3.1-5.1,5.1-7.3
		c0.1-0.1,0.3-0.3,0.4-0.4c1.3-0.5,3.9,0.3,4.8,1.3c0.6,0.7,0.8,1.5,0.8,2.3c0,2.2-0.1,4.4-0.2,6.6c-0.1,2.5-0.3,5.1-0.5,7.6
		c0,0.5,0,1,0.1,1.4c0.2,0.9-0.4,1.6-0.8,2.3c-0.1,0.1-0.3,0.3-0.4,0.3c-0.8-0.4-1.4,0.1-2.2,0.2c-0.3,0-0.5-0.2-0.8-0.3
		c-0.4-0.2-0.8-0.3-1.4-0.5c-0.8-1.8-0.5-3.8-0.4-5.7c0.1-1.5,0.2-3,0.3-4.5c0-0.1-0.1-0.2-0.3-0.5c-0.7,1.5-1.3,2.8-2,4.2
		c-0.7,1.4-1.3,2.9-2,4.3c-0.7,1.5-2.1,1.3-3.4,1.2c-0.7-0.1-1.5-0.3-2.2-0.5c-0.2-0.1-0.4-0.4-0.5-0.6c-0.4-1-0.8-2-1.1-3
		c-0.1-0.3-0.2-0.6-0.3-1c-0.1,0-0.2,0-0.3,0c-0.6,1.5-1.2,2.9-1.8,4.4c-0.4,1.1-0.8,2.1-1.1,3.2c-0.2,0.8-0.4,1.6-1,2.2
		c-0.8,0.8-1.7,1-2.8,0.9c-0.6-0.1-1.2-0.2-1.9-0.4c-1.4-0.3-1.6-0.6-1.9-2.1c-1,0.4-1.9,0.9-2.9,1.2c-1.7,0.5-3.3,1.1-5.1,1.1
		c-1.9-0.1-3.7-0.4-5.3-1.3c-1.2-0.7-2.1-1.8-2.3-3.4c0-0.3-0.1-0.6-0.1-0.9c-0.1,0-0.2,0-0.3,0c-0.2,0.4-0.4,0.7-0.6,1.2
		c-1.1-0.2-2.2,0.3-3.5-0.1c-1.1-0.3-1.5-0.9-1.6-1.8c-0.3-1.6-0.4-3.3-0.6-4.9c-0.1-0.6-0.2-1.2-0.3-2c-0.8,1.6-1.5,2.9-2.1,4.3
		c-0.7,1.4-1.7,2.1-3.3,1.8c-1.2-0.2-2.4-0.3-3.4-0.8c-0.6-0.3-1.1-1.2-1.3-2c-0.6-1.5-1-3.1-1.6-4.6c-0.8,1.1-1.3,2.2-1.7,3.5
		c-0.7,2.1-1.3,4.2-1.9,6.2c-0.1,0.5-0.2,1-0.1,1.5c0.1,1.7-0.6,2.3-2.2,2.9c-1.6,0.7-2.7-0.5-4.1-0.5c-0.1,0-0.4-0.4-0.4-0.7
		c0-0.5-0.1-1.1,0.1-1.5c1.3-4,2.4-8.1,4.2-11.9c1-2,1.9-4,2.9-6c0.4-0.7,0.8-1.4,1.2-2c0.5-0.7,2-1.1,3-0.8
		c0.4,0.2,0.9,0.3,1.3,0.5c1.6,0.5,2.1,1.9,2.6,3.3c0.5,1.4,0.8,2.9,1.3,4.6c0.5-0.9,0.9-1.6,1.4-2.3c1.2-2,2.4-4,3.6-6
		c0.7-1.1,2.5-1.7,3.7-1.3c0.7,0.3,1.5,0.6,2.1,1c0.4,0.3,0.7,0.9,0.7,1.4c0.1,3.6,0.1,7.2,0.2,10.8c0,1.4,0.1,2.7,0.2,4
		c0,0.4,0.3,0.9,0.5,1.3C117,51.2,117.1,51.1,117.1,51.1z"/>
	<path d="M115.3,17.7c0.5-0.5,0.9-0.8,1.1-1.1c1.8-3.2,2.5-6.7,2.5-10.3c0-1.4-0.1-2.9-0.1-4.3c0-1.7,1.4-2.5,3.1-1.7
		c0.4,0.2,0.9,0.4,1.3,0.5c1,0.4,1.1,1.3,1.2,2.2c0.1,0.7-0.1,1.5-0.1,2.3c0,2.3,0.1,4.7,0,7c0,1-0.4,1.9-0.8,2.9
		c-0.6,1.7-1.1,3.4-2,4.9c-1,1.8-3,2.6-5,2.2c-1-0.2-2-0.3-2.9-0.6c-2.5-1-3.9-2.9-4.7-5.4c-0.4-1.2-0.8-2.4-1.3-3.6
		c-0.2,0.6-0.3,1.3-0.5,1.9c-0.4,1.5-0.8,3-1.2,4.5c-0.2,0.7-0.4,1.5-0.6,2.2c-0.3,1.3-1.4,2.1-2.8,1.8c-0.8-0.2-1.6-0.6-2.5-0.8
		c-0.3-0.1-0.6-0.3-0.9-0.2c-1.2,0.2-2.4,0.5-3.6,0.6c-1.5,0.1-2.9,0.1-4.4,0.2c-0.7,0-1.3,0.2-2,0.2c-1.9,0-3.8,0-5.7-0.2
		c-0.8-0.1-1.2,0.1-1.5,0.8c-0.4,0.9-1.1,1.1-2,1.1c-2.6-0.1-3.9-1.8-4.8-3.9c-0.4-1-0.8-1.9-1.2-3c-0.5,0.2-1.1,0.3-1.5,0.6
		c-1.2,0.8-2.4,1.7-3.6,2.4c-0.4,0.3-1.1,0.3-1.6,0.2c-1.6-0.2-2-0.1-2.3,1.6c-0.1,0.4-0.1,0.8-0.2,1.2c-0.3,1.2-1.3,1.7-2.5,1.3
		c-0.8-0.3-1.7-0.4-2.4-0.9c-1.2-0.8-1.3-1.6-0.8-2.9c1-2.6,2-5.1,2.9-7.7c1.2-3.2,2.3-6.4,3.4-9.7c0.6-1.6,1.1-1.9,2.7-1.6
		c2.5,0.4,4.6,1.8,6.6,3.4c1.5,1.2,2.1,3.1,2.7,4.8c0.9,2.3,1.7,4.7,2.5,7c0.1,0.3,0.4,0.5,0.6,0.6c1.7,0.7,3.5,0.7,5.3,0.6
		c0.5,0,0.7-0.2,0.8-0.7c0.2-2.3,0.5-4.5,0.7-6.8c0.1-0.9,0.1-1.9,0.1-2.9c0-0.7-0.4-1-1.1-0.9c-0.5,0.1-1,0.1-1.4,0.2
		c-2.3,0.6-4.4,0.1-6.3-1.2c-0.2-0.1-0.3-0.5-0.3-0.8c0-0.5,0.1-1,0.2-1.6c1.6-0.6,3.3-0.6,5-0.7c2.9-0.2,5.8-0.2,8.7-0.3
		c1.4,0,2.8-0.2,4.2-0.1c1,0.1,1.8,0.7,2.4,1.6c0.4,0.6,0.3,1.2-0.4,1.5c-0.8,0.4-1.7,0.7-2.6,0.9c-1,0.2-2,0.3-2.8,0.5
		c0.1,3.7,0.3,7.3,0.4,10.9c0.9-0.1,1.9-0.2,2.9-0.3c0.5,0,1,0.1,1.5,0.2c1.2,0.4,1.4,0.4,1.8-0.8c1-3.2,1.9-6.5,2.9-9.7
		c0.4-1.3,0.9-2.5,1.4-3.7c0.6-1.3,1.7-1.7,3.1-1.3c0.3,0.1,0.6,0.3,0.9,0.3c1.1,0,1.9,0.5,2.5,1.4c0.8,0.9,1.4,1.9,1.6,3.1
		c0.7,2.9,1.4,5.8,2.2,8.7C114.5,16.4,114.9,16.9,115.3,17.7z M68,14.3c1.7-0.3,3.1-0.6,4.7-0.9c-0.6-1.8-1.2-3.6-1.8-5.3
		c-0.2,0-0.3,0-0.5,0C69.8,10.2,68.5,12,68,14.3z"/>
	<path d="M32.2,11.5c0.9-0.1,1.7-0.2,2.5-0.3c1.5-0.2,3,0.1,4.4,0.5c0.6,0.2,1.2,0.8,1.7,1.2c0.1,0.1,0.1,0.7-0.1,0.9
		c-0.3,0.4-0.8,0.8-1.3,0.8c-2.3,0.3-4.4,1.2-6.6,2c-0.3,0.1-0.6,0.3-0.9,0.4c-0.6,0.3-1.3,0.6-2,0.8c-0.9,0.2-1.4,0.6-1.3,1.6
		c0.1,0.7,0.3,1.3,0.6,1.9c0.4,0.7,0.9,1,1.8,0.9c1.8-0.2,3.4-1,4.9-1.8c1.4-0.7,2.7-1.5,4.1-2.3c0.6-0.3,1.1-0.7,1.6-1.1
		c0.9-0.6,1.6-0.7,2.5-0.1c0.2,0.1,0.4,0.2,0.6,0.4c1.1,0.7,1.3,1.9,0.4,2.8c-2.5,2.2-5.3,4.1-8.4,5.3c-2.6,1-5.2,1-7.8,0.5
		c-0.8-0.2-1.5-0.6-2.3-0.9c-0.1,0.1-0.2,0.1-0.2,0.1c-0.8,2.2-2.3,2.1-4.9,1.5c-2.7-0.5-4.3-2.6-6.2-4.2c-1.8-1.5-3.4-3.3-5.9-3.7
		c-0.5-0.1-1-0.5-1.4-0.8c-0.5-0.3-1-0.3-1.1,0.4c-0.1,1.4-0.3,2.8-0.3,4.3c0,1.8-0.4,3.2-2.7,2.9c-1-0.1-2-0.4-3-0.8
		c-0.4-0.1-0.7-0.7-0.8-1.1C0,23.2,0,22.5,0.1,21.9c0.2-2.2,0.6-4.3,0.8-6.5c0.3-2.1,0.5-4.3,0.7-6.4c0.1-0.5-0.2-1.1-0.2-1.6
		c0-0.7,0.1-1.4,0.1-2.1c0-0.5-0.1-1.1-0.3-1.6C0.8,2.4,0.7,1.3,2.8,1.1c3.1-0.3,6.3-0.2,9.3,0.5c2.7,0.6,5.4,1.2,7.8,2.9
		c1.8,1.3,2,2.6,1,4.4c-1.4,2.5-3.1,4.8-5.2,6.8c-0.2,0.2-0.3,0.4-0.6,0.7c1.4,1.2,2.7,2.3,4.1,3.4c1.4,1.1,2.4,2.6,4.5,3.2
		c-0.2-0.5-0.2-0.9-0.4-1.2c-1-1.9-0.8-3.8-0.1-5.7c1.7-4.5,4-8.6,7-12.3c0.3-0.4,0.6-0.9,0.9-1.4c0.3-0.7,0.8-0.9,1.6-0.7
		c1,0.2,2,0.4,2.9,0.7c2,0.6,2.5,2.4,1,3.7C35.7,6.5,35,7.3,34.2,8C33.2,8.9,32.6,10,32.2,11.5z M7.8,5.1C8,5.8,8.2,6.4,8.2,6.9
		C8.2,8.6,8,10.4,7.9,12.1c-0.1,0.6,0,1.1,0.6,1.5c0.4-0.2,0.9-0.4,1.3-0.6c1.9-1.2,3.1-3,4.3-4.8c1.2-1.7,0.4-2.3-0.9-2.8
		C11.4,4.7,9.6,4.9,7.8,5.1z"/>
	<path d="M42.6,49.3c0.1-0.6,0.1-1.3,0.2-1.9c0.3-1.8,0.7-3.5,0.9-5.3c0.2-1.5,0.3-3.1,0.5-4.6c0.1-0.5,0.2-1,0.3-1.4
		c0.2-0.4,0.4-0.8,0.6-1.3c1.5,0,2.9-0.3,4.4,0.5c1.2,0.7,1.9,1.6,1.7,2.7c-0.2,1-0.4,2-0.6,3c-0.5,2.9-1.1,5.7-1.6,8.6
		c-0.4,2.4,0.1,2.8,2.3,1.9c2.4-1,4.8-2.1,7.1-3.3c0.3-0.1,0.5-0.6,0.6-0.9c0.2-2.9,0.3-5.7,0.5-8.6c0.1-1.1,0.2-2.2,0.4-3.3
		c0.2-1,1.4-1.9,2.4-1.7c1.3,0.2,2.6,0.5,3.6,1.6c0.6,0.6,0.7,1.1,0.5,1.9c-0.7,2.5-1.1,5.1-1.1,7.8c0,1.7,0.1,3.3,0.2,5
		c0.1,1.3,0.6,1.6,1.8,1.3c2.2-0.6,4.4-1.2,6.5-1.8c0.7-0.2,1.5-0.4,2.2-0.7c1.5-0.6,2.1-0.4,2.9,1.1c0.2,0.3,0.3,0.7,0.4,1
		c-2,2.5-4.9,3.1-7.6,4.1c-1.5,0.5-3.2,0.8-4.8,0.8c-2,0-4-0.3-5.7-1.3c-0.6-0.3-1.5,0.1-2-0.7c-0.1-0.1-0.8,0.1-1.2,0.3
		c-1.1,0.5-2.1,1-3.1,1.5c-2.5,1.1-5,1.5-7.7,0.5c-0.8-0.3-1.8-0.6-2.6-0.7c-0.8-0.1-1.5,0.1-2.3,0.3c-1.9,0.4-3.3-0.3-4.2-2
		c-0.6-1-1.3-2-1.8-3.1c-0.4-0.7-0.8-0.8-1.5-0.6c-0.7,0.2-1.4,0.5-2,0.8c-0.7,0.4-1.4,0.8-2.3,0.7c-1-0.1-1,0.7-1.2,1.3
		c-0.1,0.5,0.1,1.1-0.5,1.3c-0.7,0.2-1.3,0.7-2,0.7c-0.7,0-1.5-0.3-2.2-0.5c-0.3-0.1-0.5-0.2-0.8-0.3c-0.9-0.3-1.3-0.9-1-1.9
		c0.5-1.6,1.2-3.2,1.8-4.8c1-2.9,2-5.7,3-8.6c0.5-1.5,1-3.1,1.5-4.6c0.3-0.8,1.1-1.1,2.2-1.2c1.7-0.2,2.7,0.8,3.9,1.7
		c0.1,0.1,0.3,0.3,0.2,0.4c-0.3,1,0.5,1.3,1,1.9c0.7,0.7,1.1,1.7,1.5,2.7c0.8,1.8,1.4,3.6,2.2,5.4c0.6,1.5,1.2,3,1.9,4.5
		C42.3,49.4,42.5,49.3,42.6,49.3z M31.6,46.2c1-0.1,1.8-0.2,2.7-0.2c0-1.3-0.7-2.2-1.4-3.2C32.4,43.9,32,45,31.6,46.2z"/>
	<path d="M153.5,14.1c-0.4,1.2-0.8,2.5-1.3,3.7c-0.5,1.5-1,3-1.6,4.5c-0.6,1.5-2.1,2-3.5,1.2c-0.2-0.1-0.5-0.1-0.7-0.2
		c-1.6-0.3-2.1-0.8-2.1-2.6c-0.6,0.2-1.2,0.5-1.8,0.6c-2.9,0.8-5.7,1.5-8.7,1.2c-2.3-0.2-4.6-0.4-6.9-0.9c-0.9-0.2-1.8-0.8-2.4-1.4
		c-0.9-0.9-0.4-2.3,0.9-2.4c1.2-0.1,2.4,0.2,3.6,0.3c0.9,0.1,1.8,0.2,2.7,0.2c0.2,0,0.6-0.4,0.6-0.7c0.3-2.6,0.5-5.1,0.7-7.7
		c0.1-0.7,0-1.4,0-2.3c-0.7,0.1-1.3,0.1-1.9,0.3c-1.8,0.3-3.4,0.2-4.8-1.2c-1.2-1.1-1-2.1,0.4-2.9c0.1-0.1,0.2-0.1,0.3-0.1
		c4-0.8,8-2.1,12.1-1.9c1.9,0.1,3.8,0.3,5.5,1.3c0.4,0.3,0.8,0.5,0.7,1.1c-0.1,0.6-0.3,1.1-0.9,1.3c-0.5,0.1-0.9,0.2-1.4,0.2
		c-1.5,0.1-3,0.2-4.5,0.4c-0.2,0-0.3,0.2-0.5,0.3c1.5,3.5,0.9,7,0.6,10.8c0.6-0.1,1-0.2,1.4-0.3c0.8-0.3,1.6-0.6,2.4-0.9
		c0.9-0.5,1.9-0.7,2.9-0.4c0.8,0.2,1-0.2,1.2-0.8c1.6-3.8,2.8-7.8,3.9-11.8c0.5-2,0.5-1.5,2.3-1.6c0.9,0,1.8,0.3,2.6,0.7
		c0.5,0.3,1,1,1.1,1.6c0.8,2.8,1.5,5.6,2.3,8.4c0.6,2,1.3,4,2,6c0.8-0.3,1-0.9,1.1-1.4c0.3-1.7,0.4-3.4,0.8-5.1
		c0.6-2.7,0.2-5.4,0.3-8.1c0-0.5,0.1-1,0.2-1.5c0.2-0.7,1.5-1.1,2.3-0.8c0.4,0.2,0.8,0.4,1.2,0.5c1.1,0.3,1.5,1,1.6,2
		c0.1,0.6,0,1.3,0,1.9c-0.1,1.7-0.3,3.5-0.4,5.2c-0.1,1.3,0.1,2.6,0,3.8c-0.1,1.5-0.5,3-0.8,4.4c-0.2,0.9-0.5,1.7-0.7,2.5
		c-0.7,3.5-3.2,4-6.1,2.7c-2.4-1-3.8-3.1-4.7-5.5c-0.5-1.4-1-2.9-1.5-4.3c-0.1-0.3-0.3-0.5-0.4-0.8
		C153.7,14.1,153.6,14.1,153.5,14.1z"/>
	<path d="M211.3,55.6c-1.5,0.9-2.8,1.8-4.5,1.2c-0.4-0.2-0.9-0.3-1.3-0.6c-2.2-2.3-5-3.7-7.8-5.1c-1-0.5-1.9-1.1-2.9-1.7
		c-1.2-0.6-2.3-1.3-3.7-2c-0.2,2.3-0.4,4.5-0.6,6.7c-0.2,0.2-0.6,0.4-0.9,0.6c-0.2,0.1-0.5,0.2-0.7,0.2c-1.1-0.1-2.2,0-3.2-0.5
		c-0.9-0.4-1.5-0.9-1.4-2c0.1-0.7,0.3-1.5,0.4-2.2c0.4-2.5,0.7-5,1-7.6c0.2-1.6,0.5-3.2,0.7-4.8c0.2-1.1,0-1.7-1.4-1.9
		c-0.4-0.1-0.8-0.4-1.1-0.6c0.2-0.5,0.5-0.9,0.6-1.3c0.2-1,0.9-1.1,1.7-1.2c3.6-0.5,7,0.4,10.5,1.1c2.5,0.5,4.8,1.3,6.9,2.7
		c0.8,0.5,1.5,1.1,2,1.8c0.3,0.3,0.3,1,0.1,1.4c-0.6,1.4-1.6,2.6-2.9,3.4c-1.4,0.9-2.8,1.6-4.2,2.4c-0.2,0.1-0.5,0.3-0.9,0.6
		c1.2,0.8,2.3,1.5,3.4,2.2c3,1.6,6.2,2.9,8.6,5.4C210.2,54.1,210.7,54.8,211.3,55.6z M198.9,38.9c-2-1.2-4-1.7-6-2.2
		c-0.3,2-0.5,4-0.8,6.1C194.5,41.8,196.9,41,198.9,38.9z"/>
	<path d="M11.4,51.3c-0.7,1-1.3,1.8-1.9,2.7c-0.8,1.1-1.6,2.1-2.4,3.1C6.6,57.7,6,58.1,5.2,58c-1.2-0.2-2.5-0.2-3.6-0.5
		c-0.4-0.1-0.8-0.9-0.8-1.4c-0.2-2.5-0.2-5-0.3-7.5c-0.1-2.4,0-4.7-0.1-7.1c0-1.3-0.3-2.6-0.4-3.9c-0.1-0.8,0.3-1.2,1-1.5
		c1.9-0.7,3.4,0,4.7,1.2c0.3,0.3,0.5,1,0.5,1.5c0.1,2.7,0.1,5.4,0.2,8.1c0,0.3,0.1,0.6,0.1,0.9c1.4-0.8,2.6-1.9,4-2.2
		c1.4-0.2,3,0.4,4.6,0.7c1-2.4,1.6-5,2.2-7.7c0.4-1.7,0.9-3.5,1.5-5.1c0.4-1.1,1.9-1.5,2.9-0.8c0.2,0.1,0.3,0.3,0.5,0.4
		c1.7,1,2,1.7,1.5,3.5c-0.7,3.2-1.3,6.4-2.1,9.6c-0.5,2-1.2,4-1.9,6c-0.4,1.2-1.3,1.6-2.4,1.5c-1.2-0.1-2.4-0.2-3.5-0.5
		c-0.6-0.2-1.1-0.8-1.6-1.2C11.9,51.9,11.7,51.7,11.4,51.3z"/>
	<path d="M183.1,19c-3.8,0.4-4.5,0.2-6.1-0.9c0-0.1,0.1-0.2,0.1-0.3c0.3-1.6,0.3-1.7,2-2c0.3-0.1,0.7-0.2,1-0.4c1.9-1,3.7-2,5.6-2.9
		c1.2-0.5,2.6-0.6,3.9-0.2c0.4,0.1,0.8,0.2,1.1,0.3c1.5,0.4,2.1,1.7,1.3,3.1c-0.7,1.4-1.5,2.7-2.5,4c-1,1.4-2.1,2.7-3.3,3.9
		c-1.4,1.4-3.1,2.4-5,2.8c-2.9,0.7-5.6-0.2-8-1.9c-0.7-0.5-1.3-1.1-1.8-1.7c-1.7-1.9-2-4.2-1.4-6.6c1-4,3.5-7.2,5.9-10.4
		c1-1.3,2.2-2.5,2.6-4.2c0.1-0.3,0.5-0.6,0.8-0.6c0.9,0,1.9-0.1,2.8,0.5c0.3,0.2,0.6,0.3,1,0.4c1.4,0.5,1.8,2.2,0.8,3.3
		c-1.5,1.8-3,3.7-4.5,5.6c-0.7,0.8-1.3,1.7-1.8,2.6c-1.1,1.8-2.1,3.6-1.8,5.8c0.1,0.7,0.4,1.4,0.7,2c0.7,1.2,1.1,1.2,2.4,0.7
		C180.6,21.3,181.8,20.3,183.1,19z"/>
	<path d="M221.3,47.2c-2.1,0.9-4,0.5-5.8,0c-2.9-0.9-4.7-3-5.9-5.7c-1-2.3-1.1-4.7,0.5-6.9c0.5-0.6,0.9-0.8,1.6-0.5
		c0.8,0.3,1.6,0.4,2.4,0.8c1.1,0.5,1.6,1.6,1.2,2.8c-0.6,2,0.3,3.6,1.3,5.1c0.3,0.4,0.8,0.5,1.2,0.2c0.8-0.6,1.6-1.1,2.3-1.9
		c1.2-1.3,2.4-2.8,3.5-4.2c0.2-0.2,0.4-0.5,0.4-0.7c0.2-1.2,1.1-2,1.6-3c2.1,0,3.9,0.7,5.5,2.1c0.6,0.6,0.6,1.3,0.3,1.9
		c-0.9,1.7-1.1,3.5-1.7,5.3c-1,3.1-1.7,6.3-3.7,9.1c-1.6,2.2-3.3,4-5.7,5.1c-0.3,0.1-0.7,0.2-1,0.3c-1.7,0.3-3.2-0.4-4.6-1.1
		c-0.4-0.2-0.6-1.1-0.8-1.6c-0.3-0.8,1-2.4,1.8-2.1c1,0.3,1.8,0,2.4-0.5c1.2-1,2.4-2,3-3.5C221.2,47.9,221.2,47.7,221.3,47.2z"/>
	<path d="M172.7,35.3c0.8-1.8,2.2-2.4,4-1.6c1.5,0.7,3,1.3,3.8,2.8c0.5,1,1.1,2,1.3,3c0.4,2.7,0.1,5.4-0.8,7.9
		c-0.4,1.2-0.9,2.4-1.9,3.4c-0.9,0.9-1.8,1.9-2.9,2.6c-1.4,0.9-3.1,1.1-4.7,1.1c-2.8-0.1-5.2-1.1-7.1-3.2c-1.7-1.8-2.2-4-1.4-6.3
		c0.8-2.3,2-4.3,3.6-6.1c0.7-0.8,1.5-1.6,2.2-2.5C169.9,35.3,171.2,35,172.7,35.3z M174.9,36.9c-0.2,0.7-0.3,1.1-0.5,1.4
		c-0.6,0.8-1.4,1.6-2,2.5c-1,1.2-2.1,2.4-2.9,3.8c-0.7,1.1-1.2,2.5-0.7,3.9c0.9,2.3,1.5,2.4,3.4,1.3c1.5-0.8,2.1-2.2,2.8-3.6
		c1.2-2.7,1.5-5.4,0.4-8.2C175.3,37.7,175.1,37.4,174.9,36.9z"/>
	<path d="M47.5,8.4c-1.2,0-2.2,0.2-3.1,0c-1.3-0.3-2.5-1-3.7-1.6c-0.2-0.1-0.4-0.4-0.4-0.7c0.1-0.5,0.2-1.1,0.4-1.6
		c0.2-0.8,0.9-0.5,1.4-0.6c2.8-0.4,5.7-0.9,8.5-1.3c2-0.3,4.1-0.7,6.2-0.7c1.1,0,2.3,0.6,3.4,1.1c0.4,0.2,0.8,1,0.7,1.5
		c0,0.4-0.7,0.8-1.2,0.9C58.5,5.8,57.2,6,56,6.2c-0.5,0.1-0.9,0.3-1.4,0.3c-0.8,0.1-1,0.6-1,1.3c0.1,1.9,0.2,3.9,0.3,5.8
		c0.1,1.9,0.1,3.8,0.2,5.7c0,0.7,0.1,1.4,0.2,2.1c0.3,1.4-0.3,2.4-1.7,2.4c-1.1,0-2.3-0.2-3.4-0.4c-0.8-0.1-1.2-0.7-1.2-1.6
		c-0.1-1.8-0.2-3.6-0.3-5.4c-0.1-2.5-0.1-4.9-0.2-7.4C47.6,8.9,47.5,8.6,47.5,8.4z"/>
</g>
</svg>
