<svg version="1.1" id="Layer_1" xmlns="http://www.w3.org/2000/svg" xmlns:xlink="http://www.w3.org/1999/xlink" x="0px" y="0px"
	 viewBox="0 0 255 31.5" style="enable-background:new 0 0 255 31.5;" xml:space="preserve">
<g>
	<path d="M148.2,3.1c0.4,0.1,0.9,0.3,1.3,0.4c1.5,0.3,2.8,1,2.5,3.2c1.8-0.1,3.6-0.1,5.3,0.8c1.6,0.8,3.2,1.6,4.1,3.4
		c0.3-0.5,0.7-0.9,0.9-1.3c0.9-1.7,2.2-2.9,3.6-4c0.7-0.6,1.7-1,2.6-1c2.8-0.1,5.5,0.4,7.5,2.8c0.7,0.8,1.5,1.5,2.2,2.3
		c1.3,1.6,2,3.4,1.5,5.4c-0.3,1.5-1,3-2.2,4.1c-1.9,1.8-4,3.2-6.7,3.6c-2.9,0.4-5.7,0.1-8.1-1.8c-0.8-0.6-1.3-1.7-1.9-2.5
		c-0.2-0.3-0.3-0.7-0.4-1.1c-0.2,0.2-0.5,0.4-0.6,0.6c-0.9,1.2-1.7,2.6-2.8,3.7c-2.3,2.5-5.1,4.1-8.7,3.8c-1.6-0.1-3.2-0.4-4.6-0.9
		c-1.5-0.5-2.6-1.7-3.4-3.1c-0.1-0.2-0.2-0.3-0.3-0.5c0-0.1-0.1-0.1-0.2-0.1c-1.1,0.8-2.2,1.5-3.3,2.3c-1.9,1.4-4.1,1.8-6.4,2.1
		c-1.4,0.2-2.8,0.3-4.1,0.3c-0.9,0-1.8-0.1-2.7-0.4c-0.9-0.2-1.8-0.4-2.7-0.2c-1.5,0.3-2.9-0.2-4.4-0.6c-0.1-1.3,0-2.5,0.4-3.8
		c0.8-2.4,1.3-4.8,2-7.2c0.8-2.9,1.3-5.8,1.4-8.8c0-0.1,0-0.2,0.1-0.2c0.3-1.6,0.8-2.1,2.5-2c0.7,0,1.4,0.1,2.1,0.2
		c3.4,0.5,6.8,1,10,2.4c0.9,0.4,1.8,0.9,2.6,1.4c1.6,1.1,1.6,3,0.2,4.7c-1,1.1-2,2.1-3.4,2.8c-0.2,0.1-0.4,0.2-0.6,0.3
		c0.1,0.1,0.1,0.2,0.2,0.3c1.8,0.6,3.5,1.3,5.4,1.9c1-5.7,3.7-10.4,8.7-13.6C148.1,3,148.1,3.1,148.2,3.1z M149,10.2
		c-0.8-0.3-1.4,0.4-1.8,1.4c-0.5,1.1-1,2.1-1.4,3.2c-0.7,2.1-0.9,4.2,0.8,6.1c0.4,0.5,0.8,0.7,1.3,0.6c0.8-0.2,1.7-0.4,2.5-0.8
		c2.5-1.5,4.3-3.6,5.3-6.4c0.7-2-0.5-4.1-2.7-4.1C151.8,10.2,150.6,10.2,149,10.2z M166.4,16c0.1,0.6,0.2,1.2,0.3,1.7
		c0.2,1,1.1,1.5,2.1,1.1c1.6-0.6,2.9-1.6,4.1-2.8c0.5-0.5,0.9-1.4,0.9-2.1c-0.1-1.9-1-3.6-2.2-5c-0.4-0.4-0.7-0.4-1.2-0.1
		C168,10.6,166.3,12.8,166.4,16z M123.2,21.1c3,0.7,5.9,1.3,8.7-0.6c0.6-0.4,1.5-0.5,1.6-1.7c-3-1-6-2-9.1-3
		C124,17.4,123.2,19.1,123.2,21.1z M125.4,12.1c2.8,0.1,6.1-1.7,7-3.8c-1.9-0.8-3.9-1.5-6-1.5C126,8.6,125.7,10.3,125.4,12.1z"/>
	<path d="M50.8,20.3c0,1.4,0.4,2.6,1.4,3.7c0.5,0.5,1.2,0.5,1.9,0.4c3.1-0.4,5.5-2.3,7.7-4.2c0.6-0.5,1.2-1,1.8-1.5
		c0.9-0.8,2.2-0.6,2.8,0.4c0.8,1.2,0.7,2.7-0.3,3.6c-2.4,2.1-4.8,4.3-8.1,5c-3.2,0.7-6.3,0.6-9.4-0.7c-1.1-0.5-2-1.3-3-1.9
		c-0.4,1.6-1.8,1.7-3.3,1.6c-0.4,0-0.7,0.1-1.1,0c-0.6,0-1.1-0.1-1.6-0.6c-0.6-0.6-1.5-0.9-2.3-1.3c-2.1-1-4.3-2-6.6-3.1
		c-0.1,0.9-0.3,1.7-0.3,2.5c-0.1,1.9-0.4,3.9,0.1,5.8c0.1,0.5,0,0.8-0.4,1c-0.7,0.3-1.3,0.7-2.2,0.4c-0.8-0.2-1.7-0.1-2.5-0.2
		c-1.2-0.2-1.4-0.4-1.3-1.7c0.2-4.8,0.8-9.5,1.4-14.3c0.4-3.1,0.8-6.3,0.5-9.5c-0.1-0.8,0.1-1.6,0.2-2.4c1.6-0.2,3-0.6,4.5,0.3
		c1,0.6,1.6,1.4,1.6,2.6c-0.1,1.4-0.2,2.9-0.3,4.3c0,0.5,0,1.1-0.1,1.6c0.1,0,0.2,0.1,0.3,0.1c0.7-0.6,1.4-1.2,2.1-1.8
		c1.2-1,2.4-1.9,3.6-2.9c1-0.7,2-1.3,3-2c1.1-0.8,2-0.2,3,0c1,0.3,1.1,1.2,1.5,2.1c-1.2,1.1-2.4,2.3-3.7,3.4c-2.4,2.2-5.1,4.2-7.2,7
		c0.5,0.4,0.9,0.7,1.4,1.1c2.1,1.4,4.6,2.2,6.9,3.2c0.7,0.3,1.4,0.6,2.2,1c-0.2-0.6-0.3-1.2-0.4-1.7c-0.5-2.4,0-4.6,0.9-6.8
		c1-2.4,2.2-4.9,3.5-7.2c0.8-1.5,2-2.7,3.1-4.1c0.2-0.2,0.4-0.4,0.6-0.4c1.4-0.1,2.8,0.1,4,1.1c0.5,0.4,0.6,1.7,0.2,2.2
		c-0.8,1-1.6,1.9-2.3,2.9c-0.9,1.4-1.7,3-2.6,4.5c-0.1,0.1,0,0.4-0.1,0.7c0.7-0.3,1.2-0.5,1.7-0.7c1.9-0.7,3.7-1.3,5.6-2
		c1.4-0.5,2.6,0.2,3.7,0.9c0.5,0.3,0.4,1.3-0.2,1.8c-0.4,0.3-1,0.5-1.5,0.8c-2.6,1.3-5.2,2.5-7.8,3.8C52.8,19.7,51.9,19.9,50.8,20.3
		z"/>
	<path d="M106.8,24.9c0.4-2.7,0.8-5.5,1.3-8.5c-2.3,0.2-4.6,0.4-7.1,0.6c-0.2,1.1-0.5,2.3-0.7,3.5c0,0.2,0,0.3-0.1,0.5
		c-0.5,2-1.4,2.9-3.5,3c-1,0.1-2-0.4-3.1-0.6c-0.1-0.5-0.1-0.8-0.2-1.3c-0.9,0.6-1.8,1.1-2.7,1.7c-2.9,2.2-6,2.4-9.4,1.4
		c-2.6-0.8-3.5-2.7-3.7-5.1c-0.2-1.8,0.2-3.6,0.7-5.3c0.9-3.4,2.9-6.2,4.8-9.1c0.5-0.7,1-1.4,1.6-2.1c0.3-0.4,0.7-1.1,1.1-1.1
		c1,0,2.2-0.3,3.1,0.6c0.1,0.1,0.3,0.2,0.5,0.3c0.9,0.6,1,1.4,0.5,2.3c-1.6,2.7-3.4,5.3-4.9,8c-1.1,1.9-1.6,4.1-1.4,6.3
		c0.1,1.5,0.6,2.3,2.2,1.2c2-1.3,3.9-2.6,5.8-4c0.8-0.5,1.5-1.2,2.3-1.7c0.9-0.5,1.3-1.3,1.4-2.3c0.3-1.9,0.6-3.9,1-5.8
		c0.1-0.7,0.4-1.5,0.6-2.2c0.3-0.9,1-1.5,1.9-1.5c1,0,2,0.2,2.9,0.5c0.8,0.3,1,1.3,0.7,2.4c-0.3,1.2-0.5,2.4-0.7,3.5
		c-0.1,0.6-0.2,1.3-0.2,2c-0.1,0.6,0.3,0.8,0.8,0.7c0.4,0,0.9-0.2,1.3-0.3c1.6-0.5,3.3-1,4.9-1.4c0.6-0.2,0.8-0.4,1-1
		c0.5-2.3,1-4.6,1.5-6.9c0.1-0.7,0.2-1.4,0.4-2c0.1-0.4,0.3-1.1,0.6-1.2c0.6-0.2,1.4-0.2,2.1-0.2c0.4,0,0.8,0.2,1.1,0.3
		c1.4,0.4,2,1.1,1.9,2.5c-0.1,1.4-0.4,2.8-0.7,4.2c-0.6,2.7-1.2,5.4-1.9,8c-0.8,2.9-1.1,5.9-1.4,8.8c-0.2,1.5-1.2,2.3-2.7,2.1
		c-0.7-0.1-1.5-0.1-2.2-0.3C107.8,25.6,107.4,25.3,106.8,24.9z"/>
	<path d="M189.2,11.2c0.9-0.5,1.6-0.9,2.3-1.3c3-1.9,6-3.8,9-5.8c1.2-0.8,2,0,3,0.4c0.9,0.4,1.1,1.2,1.1,2.1c0,0.3-0.2,0.7-0.5,0.9
		c-0.8,0.6-1.7,1.1-2.5,1.6c-1.5,1.1-3.4,1.8-4.7,3.4c-0.2,0.3-0.5,0.5-0.9,0.6c-2.2,1.2-4.1,2.7-5.9,4.4c-0.3,0.2-0.5,0.6-0.9,1
		c1.6,0.7,3.1,1.5,4.6,2.1c1.4,0.5,2.8,0.8,4.2,1.3c0.6,0.2,1.2,0.5,1.7,0.8c0.7,0.5,1.1,1.4,0.7,2.1c-0.2,0.4-0.7,0.7-1.2,0.8
		c-2,0.4-3.9-0.1-5.7-0.8c-2.2-0.8-4.3-1.8-6.5-2.7c-0.4-0.2-0.9-0.3-1.5-0.4c-0.2,1.1-0.5,2.1-0.7,3.2c-0.2,1.1-1,2.1-1.7,2
		c-0.6,0-1.3-0.1-1.9-0.2c-0.2,0-0.5-0.1-0.7-0.1c-1.7-0.1-2.1-0.5-1.8-2.2c0.2-1,0.5-2,0.8-3c0.4-1.5,0.8-3,1.3-4.4
		c0.4-1.2,0.9-2.3,1.3-3.4c1-2.9,1.7-6,2.2-9c0.2-1.3,0.9-1.7,2.2-1.6c1.1,0.1,2,0.6,2.9,1.1c0.8,0.5,0.8,1.6,0.7,2.5
		c-0.2,1.3-0.5,2.6-0.8,4C189.3,10.6,189.3,10.8,189.2,11.2z"/>
	<path d="M14.3,21.5c-0.8,0-1.5-0.1-2.1,0c-2.7,0.3-5.4-0.1-8-0.9c-1.6-0.5-2.9-1.6-4-2.9C0.1,17.6,0,17.4,0,17.3
		c0.4-1,0.3-2.1,1.2-2.9c1.6-1.6,3.1-3.4,4.6-5.1C7.4,7.6,9.1,6,10.7,4.4c0.3-0.3,0.7-0.6,1-0.9c1.5-1.7,3.2-1.9,5-0.7
		c1.9,1.3,1.9,1.2,0.3,2.8C14,8.8,11,11.9,8.1,15c-0.3,0.3-0.6,0.6-0.8,1c-0.8,1.2-0.6,1.8,0.9,1.9c1.3,0.1,2.7-0.1,4-0.2
		c1.9-0.2,3.9-0.6,5.8-0.7c1.6-0.1,3.2,0.4,4.4,1.5c1.2,1.1,1.1,2,0,3.3c-2.1,2.4-4.7,3.8-7.5,5.2c-2.1,1-4.3,1.7-6.6,2
		c-1.3,0.2-2.6,0-3.9-0.2c-0.4-0.1-1.1-0.7-1-0.9c0.1-0.7-0.5-1.8,0.7-2.1c0.6-0.2,1.2-0.4,1.8-0.5c3-0.4,5.8-1.2,8.1-3.2
		C14,21.9,14.1,21.8,14.3,21.5z"/>
	<path d="M68.4,6.5c-1.1,0.3-1.9,0.5-2.6,0.7c-1.8,0.6-3.5-0.1-5.2-0.5C60.3,6.6,60,6.1,60,5.8c-0.1-1.1,0.8-2.1,1.9-2.4
		c1.6-0.3,3.1-0.7,4.6-1c2.9-0.5,5.8-1.3,8.8-1.4C77,1,78.5,1,79.9,1.7c0.4,0.2,0.9,0.5,1.1,0.9c0.2,0.6-0.5,1.4-1.1,1.6
		c-1.4,0.3-2.7,0.5-4.1,0.7c-0.7,0.1-1,0.4-1.1,1.1c-0.1,0.9-0.4,1.8-0.6,2.7c-0.5,2.5-0.3,4.9,0,7.4c0.2,2,0.5,3.9,0.6,5.9
		c0.1,1.3-0.6,2-2.1,2.1c-0.9,0.1-1.7,0.1-2.6,0.1c-0.6,0-1.3-0.6-1.4-1.4c-0.2-1.5-0.4-2.9-0.5-4.4c-0.1-2.1-0.3-4.3-0.3-6.4
		c0-1.1,0.2-2.2,0.3-3.3C68.3,8,68.3,7.4,68.4,6.5z"/>
</g>
</svg>
